<?xml version="1.0" encoding="UTF-8"?>
<svg version="1.1" xmlns="http://www.w3.org/2000/svg" width="60" height="60">
<path d="M0 0 C1.65 0 3.3 0 5 0 C5.66 1.32 6.32 2.64 7 4 C10.3 4 13.6 4 17 4 C17.33 2.68 17.66 1.36 18 0 C19.98 0 21.96 0 24 0 C24.495 1.98 24.495 1.98 25 4 C28.3 4 31.6 4 35 4 C35.66 2.68 36.32 1.36 37 0 C38.65 0 40.3 0 42 0 C42.3403125 0.9590625 42.3403125 0.9590625 42.6875 1.9375 C43.83529804 4.26352314 43.83529804 4.26352314 46.5 4.625 C47.325 4.74875 48.15 4.8725 49 5 C53.02568444 9.02568444 51.79566295 17.52593441 51.91992188 23.04443359 C51.97270414 24.82776606 52.05409037 26.61051412 52.16601562 28.39111328 C52.71634048 37.26095757 52.70338581 45.05191302 47.07720947 52.34283447 C41.7857124 58.0731432 36.7402791 60.68012284 28.95495605 61.34906006 C24.03327572 61.50036304 19.16342697 61.27146005 14.25 61 C12.21109258 60.94680547 10.17201139 60.89988456 8.1328125 60.859375 C4.43434139 60.75943491 0.73852468 60.64835288 -2.95605469 60.44921875 C-3.69104187 60.41143311 -4.42602905 60.37364746 -5.18328857 60.3347168 C-7 60 -7 60 -9 58 C-9.26742554 55.84352112 -9.26742554 55.84352112 -9.29052734 53.13891602 C-9.30328705 52.1276918 -9.31604675 51.11646759 -9.32919312 50.07460022 C-9.33141876 48.97877121 -9.33364441 47.8829422 -9.3359375 46.75390625 C-9.3425943 45.63185287 -9.3492511 44.5097995 -9.35610962 43.35374451 C-9.36624899 40.97730147 -9.37092624 38.60082988 -9.37060547 36.22436523 C-9.37497811 32.5807422 -9.41128454 28.93833035 -9.44921875 25.29492188 C-9.4550866 22.98958749 -9.4590562 20.68424733 -9.4609375 18.37890625 C-9.47530853 17.28510147 -9.48967957 16.19129669 -9.50448608 15.06434631 C-9.4952562 13.54278175 -9.4952562 13.54278175 -9.48583984 11.99047852 C-9.48868988 11.09716324 -9.49153992 10.20384796 -9.49447632 9.28346252 C-9 7 -9 7 -7.15713501 5.18809509 C-5 4 -5 4 -2 4 C-1.34 2.68 -0.68 1.36 0 0 Z " fill="#F0EFEE" transform="translate(9,0)"/>
<path d="M0 0 C1.65 0 3.3 0 5 0 C5.66 1.32 6.32 2.64 7 4 C10.3 4 13.6 4 17 4 C17.33 2.68 17.66 1.36 18 0 C19.98 0 21.96 0 24 0 C24.495 1.98 24.495 1.98 25 4 C28.3 4 31.6 4 35 4 C35.66 2.68 36.32 1.36 37 0 C38.65 0 40.3 0 42 0 C42.3403125 0.9590625 42.3403125 0.9590625 42.6875 1.9375 C43.83529804 4.26352314 43.83529804 4.26352314 46.5 4.625 C47.325 4.74875 48.15 4.8725 49 5 C51.95525778 7.95525778 51.51712352 11.2542721 51.6875 15.234375 C51.72313049 16.06072449 51.75876099 16.88707397 51.79547119 17.73846436 C51.89022005 20.4090529 51.95272879 23.07815939 52 25.75 C52.0243512 27.09324341 52.0243512 27.09324341 52.04919434 28.46362305 C52.21450792 47.01398903 52.21450792 47.01398903 46.18359375 53.79394531 C43.19230299 56.43323064 40.64954966 58.31559246 37 60 C34.78417969 59.59960938 34.78417969 59.59960938 33 59 C33.11371497 56.70774565 33.24130964 54.41617612 33.375 52.125 C33.44460937 50.84882812 33.51421875 49.57265625 33.5859375 48.2578125 C34 45 34 45 36 43 C39.0390625 42.8046875 39.0390625 42.8046875 42.625 42.875 C43.81351563 42.89304688 45.00203125 42.91109375 46.2265625 42.9296875 C47.59941406 42.96449219 47.59941406 42.96449219 49 43 C48.88204571 38.17601086 48.75781982 33.35224042 48.62768555 28.52856445 C48.58427703 26.88635697 48.54260642 25.24410261 48.50268555 23.60180664 C48.4451256 21.24611255 48.38139108 18.89065572 48.31640625 16.53515625 C48.29969376 15.79660904 48.28298126 15.05806183 48.26576233 14.2971344 C48.46451987 10.85699373 48.46451987 10.85699373 47 8 C45.48530552 7.76807135 43.96245438 7.58784762 42.4375 7.4375 C41.61121094 7.35371094 40.78492188 7.26992187 39.93359375 7.18359375 C39.29550781 7.12300781 38.65742187 7.06242188 38 7 C38 8.32 38 9.64 38 11 C38.66 11 39.32 11 40 11 C40 11.66 40 12.32 40 13 C38.68 12.67 37.36 12.34 36 12 C36 10.35 36 8.7 36 7 C30.39 7 24.78 7 19 7 C19.33 7.99 19.66 8.98 20 10 C20.66 10.33 21.32 10.66 22 11 C22 11.66 22 12.32 22 13 C20.68 12.67 19.36 12.34 18 12 C17.67 10.35 17.34 8.7 17 7 C11.72 7 6.44 7 1 7 C1 8.32 1 9.64 1 11 C1.66 11 2.32 11 3 11 C3 11.66 3 12.32 3 13 C1.68 12.67 0.36 12.34 -1 12 C-1 10.35 -1 8.7 -1 7 C-2.65 7.66 -4.3 8.32 -6 9 C-6.02526945 15.6752034 -6.04283268 22.35039457 -6.05493164 29.02563477 C-6.05997325 31.29842591 -6.06680637 33.5712138 -6.07543945 35.84399414 C-6.08751261 39.10303551 -6.09322987 42.36203417 -6.09765625 45.62109375 C-6.10281754 46.64400009 -6.10797882 47.66690643 -6.11329651 48.72080994 C-6.11340981 50.13215965 -6.11340981 50.13215965 -6.11352539 51.57202148 C-6.115746 52.40475082 -6.11796661 53.23748016 -6.12025452 54.09544373 C-6.21004832 56.01033274 -6.21004832 56.01033274 -5 57 C-2.71011219 57.15888092 -0.41556559 57.25138073 1.87890625 57.31640625 C2.5655687 57.33718735 3.25223114 57.35796844 3.95970154 57.37937927 C6.16052935 57.44494143 8.36147975 57.50379015 10.5625 57.5625 C12.05144514 57.60567892 13.54037773 57.649293 15.02929688 57.69335938 C18.68606553 57.8006293 22.34297318 57.90187772 26 58 C26.33 58.66 26.66 59.32 27 60 C22.19451403 60.04936883 17.38917506 60.08570443 12.58349609 60.10986328 C10.94805328 60.11993254 9.31262851 60.13358881 7.67724609 60.15087891 C5.3290563 60.17508705 2.98110412 60.18647357 0.6328125 60.1953125 C-0.46726639 60.21079636 -0.46726639 60.21079636 -1.58956909 60.22659302 C-3.39462697 60.22699368 -5.1990783 60.12212755 -7 60 C-9.51861707 57.48138293 -9.26075193 56.62482206 -9.29052734 53.13891602 C-9.30328705 52.1276918 -9.31604675 51.11646759 -9.32919312 50.07460022 C-9.33141876 48.97877121 -9.33364441 47.8829422 -9.3359375 46.75390625 C-9.3425943 45.63185287 -9.3492511 44.5097995 -9.35610962 43.35374451 C-9.36624899 40.97730147 -9.37092624 38.60082988 -9.37060547 36.22436523 C-9.37497811 32.5807422 -9.41128454 28.93833035 -9.44921875 25.29492188 C-9.4550866 22.98958749 -9.4590562 20.68424733 -9.4609375 18.37890625 C-9.47530853 17.28510147 -9.48967957 16.19129669 -9.50448608 15.06434631 C-9.4952562 13.54278175 -9.4952562 13.54278175 -9.48583984 11.99047852 C-9.48868988 11.09716324 -9.49153992 10.20384796 -9.49447632 9.28346252 C-9 7 -9 7 -7.15713501 5.18809509 C-5 4 -5 4 -2 4 C-1.34 2.68 -0.68 1.36 0 0 Z " fill="#030202" transform="translate(9,0)"/>
<path d="M0 0 C6.93359375 -0.09765625 6.93359375 -0.09765625 9 0 C10 1 10 1 10.09765625 3.06640625 C10.06510417 5.37760417 10.03255208 7.68880208 10 10 C6.7 10 3.4 10 0 10 C0 6.7 0 3.4 0 0 Z " fill="#211D1D" transform="translate(44,15)"/>
<path d="M0 0 C3.3 0 6.6 0 10 0 C10 2.97 10 5.94 10 9 C6.7 9 3.4 9 0 9 C0 6.03 0 3.06 0 0 Z " fill="#171313" transform="translate(44,30)"/>
<path d="M0 0 C2.01822917 0.06510417 4.03645833 0.13020833 6.0546875 0.1953125 C5.14535741 1.47140573 4.22685897 2.74096803 3.3046875 4.0078125 C2.79421875 4.71550781 2.28375 5.42320313 1.7578125 6.15234375 C0.02986392 8.22508941 -1.73057726 9.66907104 -3.9453125 11.1953125 C-3.99930986 9.73738366 -4.03810427 8.27888538 -4.0703125 6.8203125 C-4.10511719 5.60214844 -4.10511719 5.60214844 -4.140625 4.359375 C-3.87619321 1.42947081 -2.98113708 0.29931095 0 0 Z " fill="#EFEBEB" transform="translate(48.9453125,44.8046875)"/>
<path d="M0 0 C0.99 0 1.98 0 3 0 C3 2.31 3 4.62 3 7 C5.31 7 7.62 7 10 7 C10 7.99 10 8.98 10 10 C8.52093108 10.02689216 7.04172517 10.04634621 5.5625 10.0625 C4.32693359 10.07990234 4.32693359 10.07990234 3.06640625 10.09765625 C1 10 1 10 0 9 C-0.07179964 7.48071962 -0.08392007 5.95832518 -0.0625 4.4375 C-0.05347656 3.61121094 -0.04445313 2.78492188 -0.03515625 1.93359375 C-0.02355469 1.29550781 -0.01195313 0.65742187 0 0 Z " fill="#403E3C" transform="translate(31,44)"/>
<path d="M0 0 C0.99 0 1.98 0 3 0 C3 2.31 3 4.62 3 7 C5.31 7 7.62 7 10 7 C10 7.99 10 8.98 10 10 C8.52093108 10.02689216 7.04172517 10.04634621 5.5625 10.0625 C4.32693359 10.07990234 4.32693359 10.07990234 3.06640625 10.09765625 C1 10 1 10 0 9 C-0.07179964 7.48071962 -0.08392007 5.95832518 -0.0625 4.4375 C-0.05347656 3.61121094 -0.04445313 2.78492188 -0.03515625 1.93359375 C-0.02355469 1.29550781 -0.01195312 0.65742187 0 0 Z " fill="#403E3C" transform="translate(6,44)"/>
<path d="M0 0 C0.66 0 1.32 0 2 0 C2 2.31 2 4.62 2 7 C4.31 7 6.62 7 9 7 C9 7.99 9 8.98 9 10 C6.03 10 3.06 10 0 10 C0 6.7 0 3.4 0 0 Z " fill="#272623" transform="translate(19,44)"/>
<path d="M0 0 C0.66 0.33 1.32 0.66 2 1 C2 3.31 2 5.62 2 8 C4.31 8 6.62 8 9 8 C9 8.66 9 9.32 9 10 C5.7 10 2.4 10 -1 10 C-1.09765625 3.06640625 -1.09765625 3.06640625 -1 1 C-0.67 0.67 -0.34 0.34 0 0 Z " fill="#282828" transform="translate(32,15)"/>
<path d="M0 0 C0.66 0.33 1.32 0.66 2 1 C2 3.31 2 5.62 2 8 C4.31 8 6.62 8 9 8 C9 8.66 9 9.32 9 10 C5.7 10 2.4 10 -1 10 C-1.09765625 3.06640625 -1.09765625 3.06640625 -1 1 C-0.67 0.67 -0.34 0.34 0 0 Z " fill="#282828" transform="translate(7,15)"/>
<path d="M0 0 C0.99 0 1.98 0 3 0 C3 2.31 3 4.62 3 7 C5.31 7 7.62 7 10 7 C10 7.66 10 8.32 10 9 C6.7 9 3.4 9 0 9 C0 6.03 0 3.06 0 0 Z " fill="#262626" transform="translate(31,30)"/>
<path d="M0 0 C0.99 0 1.98 0 3 0 C3 2.31 3 4.62 3 7 C5.31 7 7.62 7 10 7 C10 7.66 10 8.32 10 9 C6.7 9 3.4 9 0 9 C0 6.03 0 3.06 0 0 Z " fill="#262626" transform="translate(6,30)"/>
<path d="M0 0 C0.66 0 1.32 0 2 0 C2 2.64 2 5.28 2 8 C4.31 8 6.62 8 9 8 C9 8.66 9 9.32 9 10 C6.03 10 3.06 10 0 10 C0 6.7 0 3.4 0 0 Z " fill="#070707" transform="translate(19,15)"/>
<path d="M0 0 C0.66 0 1.32 0 2 0 C2 2.31 2 4.62 2 7 C4.31 7 6.62 7 9 7 C9 7.66 9 8.32 9 9 C6.03 9 3.06 9 0 9 C0 6.03 0 3.06 0 0 Z " fill="#000000" transform="translate(19,30)"/>
<path d="M0 0 C1.32 0 2.64 0 4 0 C4 2.31 4 4.62 4 7 C2.02 7 0.04 7 -2 7 C-1.34 6.67 -0.68 6.34 0 6 C0 4.02 0 2.04 0 0 Z " fill="#F2C47C" transform="translate(36,16)"/>
<path d="M0 0 C1.32 0 2.64 0 4 0 C4 2.31 4 4.62 4 7 C2.02 7 0.04 7 -2 7 C-1.34 6.67 -0.68 6.34 0 6 C0 4.02 0 2.04 0 0 Z " fill="#F2C47C" transform="translate(11,16)"/>
<path d="M0 0 C0.78375 0.04125 1.5675 0.0825 2.375 0.125 C1.39971263 1.46117352 0.41966681 2.7938751 -0.5625 4.125 C-1.10777344 4.8675 -1.65304688 5.61 -2.21484375 6.375 C-2.68019531 6.9525 -3.14554688 7.53 -3.625 8.125 C-3.955 8.125 -4.285 8.125 -4.625 8.125 C-4.75 5.25 -4.75 5.25 -4.625 2.125 C-2.625 0.125 -2.625 0.125 0 0 Z " fill="#FA6969" transform="translate(52.625,44.875)"/>
<path d="M0 0 C1.65 0 3.3 0 5 0 C5 1.65 5 3.3 5 5 C3.35 5 1.7 5 0 5 C0 3.35 0 1.7 0 0 Z " fill="#F8BCBC" transform="translate(46,32)"/>
<path d="M0 0 C1.65 0 3.3 0 5 0 C5 1.65 5 3.3 5 5 C3.35 5 1.7 5 0 5 C0 3.35 0 1.7 0 0 Z " fill="#ECB3B3" transform="translate(46,18)"/>
<path d="M0 0 C1.32 0 2.64 0 4 0 C4 1.98 4 3.96 4 6 C2.68 6 1.36 6 0 6 C0 4.02 0 2.04 0 0 Z " fill="#FFC975" transform="translate(36,45)"/>
<path d="M0 0 C1.32 0 2.64 0 4 0 C4 1.98 4 3.96 4 6 C2.68 6 1.36 6 0 6 C0 4.02 0 2.04 0 0 Z " fill="#FFC975" transform="translate(11,45)"/>
<path d="M0 0 C1.32 0 2.64 0 4 0 C4 1.98 4 3.96 4 6 C2.68 6 1.36 6 0 6 C0 4.02 0 2.04 0 0 Z " fill="#FFC975" transform="translate(36,31)"/>
<path d="M0 0 C1.32 0 2.64 0 4 0 C4 1.98 4 3.96 4 6 C2.68 6 1.36 6 0 6 C0 4.02 0 2.04 0 0 Z " fill="#FFC975" transform="translate(11,31)"/>
<path d="M0 0 C0.99 0 1.98 0 3 0 C3.33 1.98 3.66 3.96 4 6 C1.69 6 -0.62 6 -3 6 C-2.01 5.67 -1.02 5.34 0 5 C0 3.35 0 1.7 0 0 Z " fill="#E9BB73" transform="translate(24,17)"/>
<path d="M0 0 C0.99 0 1.98 0 3 0 C3 1.98 3 3.96 3 6 C2.01 6 1.02 6 0 6 C0 4.02 0 2.04 0 0 Z " fill="#FFC66C" transform="translate(24,45)"/>
<path d="M0 0 C0.99 0 1.98 0 3 0 C3 1.98 3 3.96 3 6 C2.01 6 1.02 6 0 6 C0 4.02 0 2.04 0 0 Z " fill="#FFC66C" transform="translate(24,31)"/>
</svg>
