<?xml version="1.0" encoding="UTF-8"?>
<svg version="1.1" xmlns="http://www.w3.org/2000/svg" width="60" height="60">
<path d="M0 0 C1.13824219 0.02449219 2.27648438 0.04898438 3.44921875 0.07421875 C6.3125 0.3125 6.3125 0.3125 8.3125 1.3125 C2.28551378 13.67058643 2.28551378 13.67058643 -2.6875 16.3125 C-5.4375 17 -5.4375 17 -7.6875 17.3125 C-3.23013699 20.45291484 -0.16351333 21.54420286 5.3125 21.8125 C11.85697529 22.17289664 15.65705304 23.48573388 20.25 28.375 C22.35871863 34.20498681 22.26105738 40.04421061 19.875 45.75 C16.9380411 48.6869589 14.37622608 49.69154712 10.5625 51.171875 C7.40188182 52.77413283 5.66879786 55.00141491 3.6015625 57.82421875 C2.3125 59.3125 2.3125 59.3125 -0.6875 60.3125 C-3.30789714 60.48681213 -5.87812084 60.58934435 -8.5 60.625 C-9.54897461 60.66850586 -9.54897461 60.66850586 -10.61914062 60.71289062 C-15.76509963 60.77547011 -18.618474 59.70434503 -22.6875 56.3125 C-23.203125 55.62027344 -23.71875 54.92804687 -24.25 54.21484375 C-26.09301228 51.77585739 -27.89818369 51.07457204 -30.6875 49.875 C-33.57146003 48.47506022 -35.5354348 47.4645652 -37.8125 45.1875 C-39.62786741 39.22272137 -39.69795235 33.48885891 -37.0625 27.8125 C-32.87975664 23.40961226 -28.62931443 22.01985886 -22.6875 21.3125 C-21.40264394 18.02545284 -21.40264394 18.02545284 -20.6875 14.3125 C-22.0391367 12.06494247 -22.0391367 12.06494247 -23.6875 10.3125 C-22.6875 7.3125 -22.6875 7.3125 -20.375 5.9375 C-17.6875 5.3125 -17.6875 5.3125 -15.375 6.6875 C-14.818125 7.22375 -14.26125 7.76 -13.6875 8.3125 C-13.3471875 7.44625 -13.3471875 7.44625 -13 6.5625 C-9.80912995 1.09243705 -6.13041142 -0.202716 0 0 Z M-9.6875 6.3125 C-9.6875 6.9725 -9.6875 7.6325 -9.6875 8.3125 C-8.84445313 7.85230469 -8.84445313 7.85230469 -7.984375 7.3828125 C-5.62403066 6.28292415 -3.48284438 5.71154149 -0.9375 5.1875 C-0.13828125 5.01992187 0.6609375 4.85234375 1.484375 4.6796875 C2.08765625 4.55851563 2.6909375 4.43734375 3.3125 4.3125 C3.3125 3.9825 3.3125 3.6525 3.3125 3.3125 C-3.68121556 2.93384929 -3.68121556 2.93384929 -9.6875 6.3125 Z M-17.6875 18.3125 C-18.0175 19.9625 -18.3475 21.6125 -18.6875 23.3125 C-15.7175 25.2925 -15.7175 25.2925 -12.6875 27.3125 C-13.1668247 22.99857774 -14.4332985 21.14680453 -17.6875 18.3125 Z M-11.6875 19.3125 C-11.23375 20.92125 -10.78 22.53 -10.3125 24.1875 C-10.05726562 25.09242187 -9.80203125 25.99734375 -9.5390625 26.9296875 C-8.8270685 29.45819726 -8.8270685 29.45819726 -6.6875 31.3125 C-5.0375 29.0025 -3.3875 26.6925 -1.6875 24.3125 C-4.9875 22.6625 -8.2875 21.0125 -11.6875 19.3125 Z M1.3125 26.3125 C-0.06982443 27.93876404 -1.40687515 29.6050002 -2.6875 31.3125 C-2.14480469 31.59222656 -1.60210937 31.87195313 -1.04296875 32.16015625 C5.4108588 35.77662538 7.00425687 38.67418343 9 45.75 C9.103125 46.265625 9.20625 46.78125 9.3125 47.3125 C10.9625 46.9825 12.6125 46.6525 14.3125 46.3125 C14.66278885 42.63446713 14.42597493 40.5489061 12.8125 37.1875 C9.72975665 33.64234515 6.5988731 32.08114909 2.3125 30.3125 C2.6425 28.9925 2.9725 27.6725 3.3125 26.3125 C2.6525 26.3125 1.9925 26.3125 1.3125 26.3125 Z M-32.1875 28.6875 C-35.08328193 31.72807102 -35.60214716 32.42483041 -36 36.5625 C-35.6295615 41.007762 -34.62083976 42.98276298 -31.6875 46.3125 C-29.05983611 47.27469702 -29.05983611 47.27469702 -26.6875 47.3125 C-27.203125 46.44625 -27.71875 45.58 -28.25 44.6875 C-30.8172759 38.89313429 -29.39049362 32.4192277 -28.6875 26.3125 C-30.14137985 26.19770842 -30.14137985 26.19770842 -32.1875 28.6875 Z M-19.25 36.8125 C-22.39631061 40.03948524 -23.48793936 42.81804736 -23.6875 47.3125 C-22.16111611 51.98143897 -19.883831 54.75376159 -15.6875 57.3125 C-13.42325649 57.18686418 -13.42325649 57.18686418 -11.6875 56.3125 C-12.1825 55.673125 -12.6775 55.03375 -13.1875 54.375 C-16.11657009 48.39481523 -14.7741408 41.69651472 -13.6875 35.3125 C-16.75086666 35.0599104 -16.75086666 35.0599104 -19.25 36.8125 Z " fill="#050302" transform="translate(38.6875,-0.3125)"/>
<path d="M0 0 C3.24222849 0.86459426 5.50112677 1.51721945 7.9375 3.875 C9 6 9 6 8.6875 8.25 C8.460625 8.8275 8.23375 9.405 8 10 C7.01 8.35 6.02 6.7 5 5 C5 5.99 5 6.98 5 8 C5.33 8.33 5.66 8.66 6 9 C5.83959396 13.25076014 5.64222044 15.34087902 2.625 18.4375 C0 20 0 20 -3 20 C-3 20.66 -3 21.32 -3 22 C-2.34 22.33 -1.68 22.66 -1 23 C-4.25 23.375 -4.25 23.375 -8 23 C-11.32830825 19.67169175 -12.24770185 16.89523336 -12.375 12.3125 C-12.31526269 8.85371 -12.02273558 8.03410337 -10 5 C-7.03 5.33 -4.06 5.66 -1 6 C-0.67 4.02 -0.34 2.04 0 0 Z " fill="#F88888" transform="translate(35,34)"/>
<path d="M0 0 C0 0.99 0 1.98 0 3 C-1.65 3 -3.3 3 -5 3 C-4.67 3.66 -4.34 4.32 -4 5 C-2.35 4.67 -0.7 4.34 1 4 C1.33 3.01 1.66 2.02 2 1 C4.89401051 2.29731506 7.16400267 3.37714667 9 6 C10.24295871 11.05469874 10.61356151 12.85468517 8.125 17.5 C7.073125 18.7375 7.073125 18.7375 6 20 C5.67 20 5.34 20 5 20 C4.7525 18.9275 4.505 17.855 4.25 16.75 C2.95200509 12.85601526 2.21700274 11.43448856 -1 9 C-3.30136389 7.85179264 -5.59328695 6.92565887 -8 6 C-7.25 3.5625 -7.25 3.5625 -6 1 C-3.84657966 0.12517299 -2.30989225 0 0 0 Z " fill="#F78787" transform="translate(48,25)"/>
<path d="M0 0 C3.57104439 1.87949705 5.54744301 3.17053157 7 7 C5.39125 7.556875 5.39125 7.556875 3.75 8.125 C-0.27847914 9.85382101 -1.96252966 12.08178781 -4 16 C-4.78215588 18.7282504 -4.78215588 18.7282504 -5 21 C-8 20 -8 20 -9.25 17.9375 C-10.36902333 13.55465863 -10.05863529 9.11727058 -8 5 C-6.02 5 -4.04 5 -2 5 C-1.34 3.35 -0.68 1.7 0 0 Z " fill="#F48686" transform="translate(18,25)"/>
<path d="M0 0 C0.804375 0.66 1.60875 1.32 2.4375 2 C4.58961915 4.10254514 4.58961915 4.10254514 6 4 C6.29402058 8.99834992 6.20219742 12.05062318 3 16 C-1.80292012 20.13274522 -4.93707386 20.41813284 -11 20 C-9.68 19.34 -8.36 18.68 -7 18 C-7 17.34 -7 16.68 -7 16 C-6.05125 15.566875 -5.1025 15.13375 -4.125 14.6875 C-0.79958063 13.20697799 -0.79958063 13.20697799 1 10 C1.37198336 6.37316225 0.85274014 4.12649899 -1 1 C-0.67 0.67 -0.34 0.34 0 0 Z " fill="#D97777" transform="translate(39,38)"/>
<path d="M0 0 C-0.28102914 3.37234971 -0.80371652 4.78639739 -3.125 7.3125 C-6.64816654 9.38044558 -8.98077152 9.31523361 -13 9 C-13 8.34 -13 7.68 -13 7 C-10.69 6.01 -8.38 5.02 -6 4 C-7.32 3.67 -8.64 3.34 -10 3 C-6.68152292 -0.06320961 -4.44849969 -0.3033068 0 0 Z " fill="#EDB864" transform="translate(41,4)"/>
<path d="M0 0 C0.99 0 1.98 0 3 0 C3 0.66 3 1.32 3 2 C3.66 2 4.32 2 5 2 C5.33 1.34 5.66 0.68 6 0 C6.99 0 7.98 0 9 0 C8.67 1.98 8.34 3.96 8 6 C5.1875 6.625 5.1875 6.625 2 7 C1.01 6.34 0.02 5.68 -1 5 C-0.67 3.35 -0.34 1.7 0 0 Z " fill="#211212" transform="translate(26,34)"/>
<path d="M0 0 C2 1.5625 2 1.5625 4 4 C4.43949492 8.10195255 4.60756392 11.64741781 2 15 C-0.625 16.25 -0.625 16.25 -3 17 C-1.79618552 14.50638429 -0.54571278 12.31856917 1 10 C1.37198336 6.37316225 0.85274014 4.12649899 -1 1 C-0.67 0.67 -0.34 0.34 0 0 Z " fill="#190D0D" transform="translate(39,38)"/>
<path d="M0 0 C0.66 0 1.32 0 2 0 C2 0.66 2 1.32 2 2 C2.99 1.67 3.98 1.34 5 1 C5 1.66 5 2.32 5 3 C5.66 3.33 6.32 3.66 7 4 C6.34 4.66 5.68 5.32 5 6 C1.875 5.625 1.875 5.625 -1 5 C-0.67 3.35 -0.34 1.7 0 0 Z " fill="#6A3A3A" transform="translate(11,25)"/>
<path d="M0 0 C0 0.99 0 1.98 0 3 C-1.65 3 -3.3 3 -5 3 C-4.67 4.32 -4.34 5.64 -4 7 C-5.32 6.34 -6.64 5.68 -8 5 C-7.25 3.0625 -7.25 3.0625 -6 1 C-3.86997684 0.20124132 -2.26695035 0 0 0 Z " fill="#E07B7B" transform="translate(48,25)"/>
<path d="M0 0 C0.33 0.66 0.66 1.32 1 2 C1.99 2.33 2.98 2.66 4 3 C0.91111478 5.05925681 0.29064073 5.2390374 -3.1875 5.125 C-5.0746875 5.063125 -5.0746875 5.063125 -7 5 C-5.68 4.34 -4.36 3.68 -3 3 C-3 2.34 -3 1.68 -3 1 C-2.01 0.67 -1.02 0.34 0 0 Z " fill="#A35959" transform="translate(35,53)"/>
<path d="M0 0 C0.99 0 1.98 0 3 0 C3 0.66 3 1.32 3 2 C3.66 2 4.32 2 5 2 C5.33 1.34 5.66 0.68 6 0 C5.67 1.65 5.34 3.3 5 5 C2 4 2 4 0.8125 1.9375 C0.544375 1.298125 0.27625 0.65875 0 0 Z " fill="#D57575" transform="translate(26,34)"/>
<path d="M0 0 C2.31 0 4.62 0 7 0 C6.01 1.485 6.01 1.485 5 3 C3.35 2.67 1.7 2.34 0 2 C0 1.34 0 0.68 0 0 Z " fill="#201111" transform="translate(43,28)"/>
</svg>
