<?xml version="1.0" encoding="UTF-8"?>
<svg version="1.1" xmlns="http://www.w3.org/2000/svg" width="60" height="60">
<path d="M0 0 C4.95392879 2.43022922 7.27314951 5.38532995 10 10 C10.4125 9.21625 10.825 8.4325 11.25 7.625 C13.1190631 4.82140534 13.83068917 3.96840053 17 3 C20.30458299 2.57162813 22.79390676 2.30003518 25.75 4.015625 C28.45585983 6.17510929 29.89624641 7.68873923 31 11 C31.11792999 12.64279217 31.17511674 14.29052694 31.1875 15.9375 C31.20167969 16.79214844 31.21585938 17.64679687 31.23046875 18.52734375 C30.98598762 21.15033622 30.18448775 22.68554067 29 25 C29.78309467 27.23470405 29.78309467 27.23470405 31 29 C32.32 29 33.64 29 35 29 C38 34 38 34 38 54 C18.2 54 -1.6 54 -22 54 C-22 34 -22 34 -19 29 C-18.55566806 26.79430011 -18.55566806 26.79430011 -18.59375 24.56640625 C-18.57183594 23.75236328 -18.54992187 22.93832031 -18.52734375 22.09960938 C-18.51832031 21.26236328 -18.50929688 20.42511719 -18.5 19.5625 C-18.43575232 13.62876779 -18.30596201 9.16457701 -15 4 C-10.33558668 -0.22018348 -6.05845032 -1.06593919 0 0 Z M-10.5625 4.5625 C-13.52898842 7.52898842 -14.14264765 9.94706164 -15 14 C-13.35 14 -11.7 14 -10 14 C-9.72285156 13.37351562 -9.44570312 12.74703125 -9.16015625 12.1015625 C-8.61681641 10.87566406 -8.61681641 10.87566406 -8.0625 9.625 C-7.70285156 8.81289062 -7.34320312 8.00078125 -6.97265625 7.1640625 C-6.3430097 5.76316215 -5.68687358 4.37374716 -5 3 C-8.07331888 2.73969629 -8.07331888 2.73969629 -10.5625 4.5625 Z M14 9 C13.1957792 11.59855733 13.1957792 11.59855733 13 14 C14.32 14 15.64 14 17 14 C17.99 11.36 18.98 8.72 20 6 C17.12295319 6 16.07482839 7.05903151 14 9 Z M13 17 C13.33867462 21.48684201 13.33867462 21.48684201 16.0625 24.875 C16.701875 25.24625 17.34125 25.6175 18 26 C18.66 25.67 19.32 25.34 20 25 C18.6446674 22.46326712 18.6446674 22.46326712 17 20 C16.34 20 15.68 20 15 20 C15 19.01 15 18.02 15 17 C14.34 17 13.68 17 13 17 Z M-15 21 C-15 22.98 -15 24.96 -15 27 C-14.01 26.34 -13.02 25.68 -12 25 C-12.99 23.68 -13.98 22.36 -15 21 Z M-12 29 C-15.36949443 30.68474722 -16.87944386 31.8191658 -19 35 C-19.14245897 37.76655324 -19.18769445 40.42653306 -19.125 43.1875 C-19.11597656 43.93708984 -19.10695313 44.68667969 -19.09765625 45.45898438 C-19.07412578 47.30612654 -19.03825561 49.15310412 -19 51 C-18.01 51 -17.02 51 -16 51 C-16 48.36 -16 45.72 -16 43 C-15.01 43 -14.02 43 -13 43 C-13 42.34 -13 41.68 -13 41 C-13.99 41 -14.98 41 -16 41 C-16 40.01 -16 39.02 -16 38 C-15.01 38 -14.02 38 -13 38 C-12.01 35.36 -11.02 32.72 -10 30 C-10.66 29.67 -11.32 29.34 -12 29 Z M15 32 C15.33 32.99 15.66 33.98 16 35 C16 34.01 16 33.02 16 32 C15.67 32 15.34 32 15 32 Z M23 34 C22.67 35.32 22.34 36.64 22 38 C21.34 38 20.68 38 20 38 C20 42.29 20 46.58 20 51 C21.32 51 22.64 51 24 51 C24 45.39 24 39.78 24 34 C23.67 34 23.34 34 23 34 Z " fill="#0F0C0A" transform="translate(22,3)"/>
<path d="M0 0 C3.1875 1.25 3.1875 1.25 5 4 C5.397035 8.03473406 5.28580804 11.96057971 5 16 C3.68 16 2.36 16 1 16 C1 13.03 1 10.06 1 7 C0.34 7 -0.32 7 -1 7 C-1 9.97 -1 12.94 -1 16 C-3.97 16 -6.94 16 -10 16 C-10 13.03 -10 10.06 -10 7 C-10.66 7 -11.32 7 -12 7 C-12 9.97 -12 12.94 -12 16 C-12.99 16 -13.98 16 -15 16 C-15.10841951 14.08458862 -15.18578079 12.16740227 -15.25 10.25 C-15.29640625 9.18265625 -15.3428125 8.1153125 -15.390625 7.015625 C-15 4 -15 4 -13.32421875 1.640625 C-9.18495259 -1.28120993 -4.85206536 -0.66034026 0 0 Z " fill="#E8B563" transform="translate(35,39)"/>
<path d="M0 0 C2.1640625 -0.29296875 2.1640625 -0.29296875 4.625 -0.1875 C5.44226562 -0.16042969 6.25953125 -0.13335938 7.1015625 -0.10546875 C8.04128906 -0.05326172 8.04128906 -0.05326172 9 0 C10.0176403 5.01608525 10.11856434 9.78608306 10.0625 14.875 C10.05798828 15.65875 10.05347656 16.4425 10.04882812 17.25 C10.03714093 19.16670014 10.01920908 21.08336048 10 23 C8.68 23 7.36 23 6 23 C5.67 18.71 5.34 14.42 5 10 C4.67 10 4.34 10 4 10 C3.67 13.96 3.34 17.92 3 22 C1.35 22 -0.3 22 -2 22 C-2.05807043 18.89591193 -2.09361914 15.7919636 -2.125 12.6875 C-2.14175781 11.80642578 -2.15851562 10.92535156 -2.17578125 10.01757812 C-2.18222656 9.17001953 -2.18867187 8.32246094 -2.1953125 7.44921875 C-2.20578613 6.66893311 -2.21625977 5.88864746 -2.22705078 5.0847168 C-2 3 -2 3 0 0 Z " fill="#EA8181" transform="translate(48,32)"/>
<path d="M0 0 C0.99 0.33 1.98 0.66 3 1 C4.1875 3.5625 4.1875 3.5625 5 6 C5.99 6 6.98 6 8 6 C8.66 4.35 9.32 2.7 10 1 C10.99 1 11.98 1 13 1 C12.34 2.32 11.68 3.64 11 5 C10.34 5 9.68 5 9 5 C7.9458482 8.16245541 7.68724328 10.86948218 7.4375 14.1875 C7.35371094 15.27417969 7.26992188 16.36085938 7.18359375 17.48046875 C7.12300781 18.31191406 7.06242187 19.14335938 7 20 C4.03 20 1.06 20 -2 20 C-2 16.7 -2 13.4 -2 10 C-2.99 10 -3.98 10 -5 10 C-5 9.01 -5 8.02 -5 7 C-4.01 7 -3.02 7 -2 7 C-1.855625 6.21625 -1.71125 5.4325 -1.5625 4.625 C-1 2 -1 2 0 0 Z " fill="#EE8684" transform="translate(11,34)"/>
<path d="M0 0 C1 1 1 1 1.3125 3.8125 C1 7 1 7 -0.5625 9.375 C-3.93510779 11.62340519 -6.02512383 11.56783945 -10 11 C-12.4375 9.375 -12.4375 9.375 -14 7 C-14.25 3.75 -14.25 3.75 -14 1 C-4.42999664 -1.52281134 -4.42999664 -1.52281134 0 0 Z " fill="#C29A7D" transform="translate(24,18)"/>
<path d="M0 0 C3.5 1.125 3.5 1.125 5.9375 3 C8.25675904 7.63851809 7.82104098 12.03293342 7.5 17.125 C7.17 17.125 6.84 17.125 6.5 17.125 C6.5 15.145 6.5 13.165 6.5 11.125 C2.97340213 9.45966212 1.19706331 8.89264556 -2.5 10.125 C-4.49788438 10.47078768 -6.49759451 10.80643549 -8.5 11.125 C-7.94325792 5.14002269 -6.70207607 0.23935986 0 0 Z " fill="#F3BC67" transform="translate(20.5,5.875)"/>
<path d="M0 0 C0.33 0.33 0.66 0.66 1 1 C0.54621849 7.12605042 0.54621849 7.12605042 -1.25 10 C-3 11 -3 11 -5.5625 10.9375 C-8 10 -8 10 -9.375 8.25 C-10.16996001 5.38814398 -10.02624415 3.78551984 -9 1 C-5.91072148 -1.42729026 -3.65119528 -1.08549049 0 0 Z " fill="#CA9F7E" transform="translate(49,18)"/>
<path d="M0 0 C-0.33 0.99 -0.66 1.98 -1 3 C-1.22325814 5.05893621 -1.40705759 7.12233653 -1.5625 9.1875 C-1.64628906 10.27417969 -1.73007812 11.36085938 -1.81640625 12.48046875 C-1.87699219 13.31191406 -1.93757813 14.14335938 -2 15 C-2.66 15 -3.32 15 -4 15 C-4 12.36 -4 9.72 -4 7 C-4.66 7 -5.32 7 -6 7 C-6 9.97 -6 12.94 -6 16 C-6.99 16 -7.98 16 -9 16 C-9.10841951 14.08458862 -9.18578079 12.16740227 -9.25 10.25 C-9.29640625 9.18265625 -9.3428125 8.1153125 -9.390625 7.015625 C-9 4 -9 4 -7.15625 1.625 C-4.55842109 -0.3327841 -3.17871322 -0.35319036 0 0 Z " fill="#E0DCD6" transform="translate(29,39)"/>
<path d="M0 0 C3.68754757 0.49831724 5.60490662 1.10067643 8 4 C7.67 4.99 7.34 5.98 7 7 C6.278125 6.79375 5.55625 6.5875 4.8125 6.375 C1.55358415 5.94047789 -0.08304504 6.58319331 -3 8 C-2.45276317 4.62537285 -1.9451 2.91765 0 0 Z " fill="#A9ABB8" transform="translate(42,9)"/>
<path d="M0 0 C1.65 0 3.3 0 5 0 C5 0.66 5 1.32 5 2 C5.66 2.33 6.32 2.66 7 3 C5.6875 5.5 5.6875 5.5 4 8 C3.01 8 2.02 8 1 8 C-1.125 3.375 -1.125 3.375 0 0 Z " fill="#674F40" transform="translate(15,32)"/>
<path d="M0 0 C0.99 0 1.98 0 3 0 C3 0.99 3 1.98 3 3 C3.66 3 4.32 3 5 3 C5.99 4.98 6.98 6.96 8 9 C5.125 8.6875 5.125 8.6875 2 8 C-0.1519437 4.77208445 -0.20086443 3.71599191 0 0 Z " fill="#EEEEEE" transform="translate(10,20)"/>
<path d="M0 0 C-0.33 1.32 -0.66 2.64 -1 4 C-1.33 3.34 -1.66 2.68 -2 2 C-3.65 2 -5.3 2 -7 2 C-7 2.99 -7 3.98 -7 5 C-7.66 5 -8.32 5 -9 5 C-9.33 3.35 -9.66 1.7 -10 0 C-6.30458414 -0.95024979 -3.69541586 -0.95024979 0 0 Z " fill="#ECCFB9" transform="translate(35,31)"/>
<path d="M0 0 C1.65 0 3.3 0 5 0 C5.33 0.99 5.66 1.98 6 3 C3.69 3.33 1.38 3.66 -1 4 C-0.67 2.68 -0.34 1.36 0 0 Z " fill="#6D5E54" transform="translate(28,33)"/>
<path d="M0 0 C0.66 0.33 1.32 0.66 2 1 C1.34 2.32 0.68 3.64 0 5 C-0.66 5 -1.32 5 -2 5 C-2 5.66 -2 6.32 -2 7 C-2.99 6.67 -3.98 6.34 -5 6 C-4.34 6 -3.68 6 -3 6 C-2.690625 5.195625 -2.38125 4.39125 -2.0625 3.5625 C-1 1 -1 1 0 0 Z " fill="#CD7371" transform="translate(22,34)"/>
</svg>
