<?xml version="1.0" encoding="UTF-8"?>
<svg version="1.1" xmlns="http://www.w3.org/2000/svg" width="60" height="60">
<path d="M0 0 C7.26 0 14.52 0 22 0 C23.32 2.97 24.64 5.94 26 9 C28.64 9 31.28 9 34 9 C35.32 6.03 36.64 3.06 38 0 C45.26 0 52.52 0 60 0 C59 7 59 7 58 10 C57.85837427 12.64453207 57.76684475 15.26774536 57.71875 17.9140625 C57.70034058 18.68430756 57.68193115 19.45455261 57.66296387 20.24813843 C57.5842764 23.54386524 57.51633941 26.83979201 57.44775391 30.13574219 C57.39616271 32.54112272 57.33888022 34.94632033 57.28125 37.3515625 C57.26767456 38.10257233 57.25409912 38.85358215 57.2401123 39.62734985 C57.11285487 44.88714513 57.11285487 44.88714513 56 46 C54.37872577 46.09861598 52.75317632 46.12798767 51.12890625 46.12939453 C49.57224243 46.13412277 49.57224243 46.13412277 47.98413086 46.13894653 C46.29042358 46.13591019 46.29042358 46.13591019 44.5625 46.1328125 C42.83688843 46.13424759 42.83688843 46.13424759 41.07641602 46.13571167 C38.63850856 46.13639369 36.2005993 46.1345379 33.76269531 46.13037109 C30.01623482 46.12502317 26.26989423 46.13031539 22.5234375 46.13671875 C20.16145807 46.13605797 17.79947871 46.13477682 15.4375 46.1328125 C14.30836182 46.13483673 13.17922363 46.13686096 12.01586914 46.13894653 C10.97809326 46.13579437 9.94031738 46.13264221 8.87109375 46.12939453 C7.95255615 46.12859894 7.03401855 46.12780334 6.08764648 46.12698364 C4 46 4 46 3 45 C2.8645411 42.47848306 2.78942553 39.98051105 2.75390625 37.45703125 C2.72094534 35.892573 2.6877341 34.32812001 2.65429688 32.76367188 C2.60703216 30.29292722 2.56265492 27.82220037 2.52319336 25.35131836 C2.48325578 22.96965154 2.43174022 20.58844213 2.37890625 18.20703125 C2.3704921 17.47555374 2.36207794 16.74407623 2.35340881 15.99043274 C2.24883063 11.61020467 1.46456816 8.10584486 0 4 C0 2.68 0 1.36 0 0 Z M4 3 C4.65585189 6.60992379 4.65585189 6.60992379 6 10 C7.98 10 9.96 10 12 10 C11.72459296 6.18186553 11.72459296 6.18186553 10 3 C8.00041636 2.95919217 5.99954746 2.95745644 4 3 Z M40 3 C39.34 5.31 38.68 7.62 38 10 C39.98 10 41.96 10 44 10 C44.99 7.69 45.98 5.38 47 3 C44.69 3 42.38 3 40 3 Z M6 13 C6 22.57 6 32.14 6 42 C8.64 42 11.28 42 14 42 C14 33.42 14 24.84 14 16 C21.59 16 29.18 16 37 16 C36.34 17.65 35.68 19.3 35 21 C35.33 21.33 35.66 21.66 36 22 C36.15655027 23.48638992 36.25066943 24.97949127 36.31640625 26.47265625 C36.35830078 27.37177734 36.40019531 28.27089844 36.44335938 29.19726562 C36.48267578 30.14279297 36.52199219 31.08832031 36.5625 32.0625 C36.60568359 33.01189453 36.64886719 33.96128906 36.69335938 34.93945312 C36.79979276 37.29281353 36.90181008 39.64628354 37 42 C37.66 42 38.32 42 39 42 C39 33.42 39 24.84 39 16 C43.95 16 48.9 16 54 16 C54 15.01 54 14.02 54 13 C38.16 13 22.32 13 6 13 Z " fill="#050302" transform="translate(0,14)"/>
<path d="M0 0 C7.59 0 15.18 0 23 0 C22.34 1.98 21.68 3.96 21 6 C20.64535092 8.59673094 20.64535092 8.59673094 20.5859375 11.1796875 C20.54726563 12.1078125 20.50859375 13.0359375 20.46875 13.9921875 C20.42234375 15.41917969 20.42234375 15.41917969 20.375 16.875 C20.33632813 17.84953125 20.29765625 18.8240625 20.2578125 19.828125 C20.164074 22.21845683 20.08097178 24.60920166 20 27 C13.4 27 6.8 27 0 27 C0 18.09 0 9.18 0 0 Z " fill="#F98888" transform="translate(14,30)"/>
<path d="M0 0 C4.95 0 9.9 0 15 0 C15 8.91 15 17.82 15 27 C10.05 27 5.1 27 0 27 C0 18.09 0 9.18 0 0 Z " fill="#FDC56B" transform="translate(39,30)"/>
<path d="M0 0 C3.37889673 -0.28527271 6.63115091 -0.44483998 10 0 C12.60078552 2.83026659 13 4.17745143 13 8 C9.7 8 6.4 8 3 8 C2.01 5.36 1.02 2.72 0 0 Z " fill="#EA8080" transform="translate(10,17)"/>
<path d="M0 0 C1.37478516 0.01740234 1.37478516 0.01740234 2.77734375 0.03515625 C3.69644531 0.04417969 4.61554687 0.05320312 5.5625 0.0625 C6.27277344 0.07410156 6.98304687 0.08570312 7.71484375 0.09765625 C7.05484375 2.40765625 6.39484375 4.71765625 5.71484375 7.09765625 C2.08484375 7.09765625 -1.54515625 7.09765625 -5.28515625 7.09765625 C-3.06170492 0.13084209 -3.06170492 0.13084209 0 0 Z " fill="#FBC36A" transform="translate(49.28515625,16.90234375)"/>
<path d="M0 0 C0.66 0.33 1.32 0.66 2 1 C1.44225728 4.23490776 0.62788492 5.97855006 -2 8 C-2.99 8 -3.98 8 -5 8 C-4.45773019 4.20411134 -2.79872437 2.52788007 0 0 Z " fill="#000000" transform="translate(39,4)"/>
<path d="M0 0 C4.6875 3.61328125 4.6875 3.61328125 6 5 C6 5.99 6 6.98 6 8 C3.64035727 7.59316505 2.14065912 7.10185661 0.1875 5.6875 C-1 4 -1 4 -0.6875 1.8125 C-0.460625 1.214375 -0.23375 0.61625 0 0 Z " fill="#000000" transform="translate(20,4)"/>
<path d="M0 0 C0.99 0.33 1.98 0.66 3 1 C3 3.64 3 6.28 3 9 C2.01 9 1.02 9 0 9 C0 6.03 0 3.06 0 0 Z " fill="#000000" transform="translate(29,0)"/>
</svg>
