<?xml version="1.0" encoding="UTF-8"?>
<svg version="1.1" xmlns="http://www.w3.org/2000/svg" width="60" height="60">
<path d="M0 0 C0.91765137 -0.00315216 1.83530273 -0.00630432 2.78076172 -0.009552 C4.27760498 -0.00651566 4.27760498 -0.00651566 5.8046875 -0.00341797 C6.82191895 -0.00437469 7.83915039 -0.00533142 8.88720703 -0.00631714 C11.04264386 -0.00699908 13.19808272 -0.00514382 15.35351562 -0.00097656 C18.66541121 0.00437148 21.97717117 -0.0009211 25.2890625 -0.00732422 C27.37760447 -0.00666344 29.46614635 -0.00538228 31.5546875 -0.00341797 C32.55258301 -0.0054422 33.55047852 -0.00746643 34.57861328 -0.009552 C35.49626465 -0.00639984 36.41391602 -0.00324768 37.359375 0 C38.17132324 0.00079559 38.98327148 0.00159119 39.81982422 0.00241089 C41.6796875 0.12939453 41.6796875 0.12939453 42.6796875 1.12939453 C42.77868311 2.93448826 42.80767901 4.74346381 42.80908203 6.55126953 C42.81223419 7.70916992 42.81538635 8.86707031 42.81863403 10.06005859 C42.8166098 11.32043945 42.81458557 12.58082031 42.8125 13.87939453 C42.81345673 15.16297852 42.81441345 16.4465625 42.81539917 17.76904297 C42.81687581 20.48943277 42.81472269 23.20978978 42.81005859 25.93017578 C42.80436131 29.42424122 42.80764049 32.91822986 42.81363106 36.41229248 C42.81810504 39.73466606 42.81497635 43.05701877 42.8125 46.37939453 C42.81452423 47.63977539 42.81654846 48.90015625 42.81863403 50.19873047 C42.81390579 51.93558105 42.81390579 51.93558105 42.80908203 53.70751953 C42.80828644 54.73264648 42.80749084 55.75777344 42.80667114 56.81396484 C42.6796875 59.12939453 42.6796875 59.12939453 41.6796875 60.12939453 C40.24228397 60.2275344 38.80012423 60.25737733 37.359375 60.25878906 C36.44172363 60.26194122 35.52407227 60.26509338 34.57861328 60.26834106 C33.58071777 60.26631683 32.58282227 60.2642926 31.5546875 60.26220703 C30.53745605 60.26316376 29.52022461 60.26412048 28.47216797 60.2651062 C26.31673114 60.26578814 24.16129228 60.26393288 22.00585938 60.25976562 C18.69396379 60.25441758 15.38220383 60.25971016 12.0703125 60.26611328 C9.98177053 60.2654525 7.89322865 60.26417135 5.8046875 60.26220703 C4.30784424 60.26524338 4.30784424 60.26524338 2.78076172 60.26834106 C1.86311035 60.2651889 0.94545898 60.26203674 0 60.25878906 C-0.81194824 60.25799347 -1.62389648 60.25719788 -2.46044922 60.25637817 C-4.3203125 60.12939453 -4.3203125 60.12939453 -5.3203125 59.12939453 C-5.41930811 57.3243008 -5.44830401 55.51532525 -5.44970703 53.70751953 C-5.45285919 52.54961914 -5.45601135 51.39171875 -5.45925903 50.19873047 C-5.4572348 48.93834961 -5.45521057 47.67796875 -5.453125 46.37939453 C-5.45456009 44.45401855 -5.45456009 44.45401855 -5.45602417 42.48974609 C-5.45750081 39.7693563 -5.45534769 37.04899928 -5.45068359 34.32861328 C-5.44498631 30.83454784 -5.44826549 27.3405592 -5.45425606 23.84649658 C-5.45873004 20.524123 -5.45560135 17.2017703 -5.453125 13.87939453 C-5.45514923 12.61901367 -5.45717346 11.35863281 -5.45925903 10.06005859 C-5.45610687 8.9021582 -5.45295471 7.74425781 -5.44970703 6.55126953 C-5.44851364 5.0135791 -5.44851364 5.0135791 -5.44729614 3.44482422 C-5.22729495 -0.56669474 -3.57352794 0.00350155 0 0 Z M-2.3203125 3.12939453 C-2.3203125 7.08939453 -2.3203125 11.04939453 -2.3203125 15.12939453 C-1.3303125 15.12939453 -0.3403125 15.12939453 0.6796875 15.12939453 C0.6796875 11.49939453 0.6796875 7.86939453 0.6796875 4.12939453 C13.5496875 4.12939453 26.4196875 4.12939453 39.6796875 4.12939453 C39.6796875 3.79939453 39.6796875 3.46939453 39.6796875 3.12939453 C25.8196875 3.12939453 11.9596875 3.12939453 -2.3203125 3.12939453 Z M-2.3203125 19.12939453 C-2.3203125 27.37939453 -2.3203125 35.62939453 -2.3203125 44.12939453 C-1.3303125 43.46939453 -0.3403125 42.80939453 0.6796875 42.12939453 C1.096141 39.70840098 1.096141 39.70840098 0.97265625 36.90283203 C0.96298828 35.87158203 0.95332031 34.84033203 0.94335938 33.77783203 C0.9056543 32.15748047 0.9056543 32.15748047 0.8671875 30.50439453 C0.85365234 29.41642578 0.84011719 28.32845703 0.82617188 27.20751953 C0.79073504 24.51432044 0.74133081 21.82210079 0.6796875 19.12939453 C-0.3103125 19.12939453 -1.3003125 19.12939453 -2.3203125 19.12939453 Z M-0.3203125 47.12939453 C-2.50362939 48.89075808 -2.50362939 48.89075808 -2.515625 51.07470703 C-2.48082031 52.15365234 -2.48082031 52.15365234 -2.4453125 53.25439453 C-2.4040625 54.53314453 -2.3628125 55.81189453 -2.3203125 57.12939453 C-1.3303125 57.12939453 -0.3403125 57.12939453 0.6796875 57.12939453 C0.6796875 53.82939453 0.6796875 50.52939453 0.6796875 47.12939453 C0.3496875 47.12939453 0.0196875 47.12939453 -0.3203125 47.12939453 Z " fill="#F8C069" transform="translate(11.3203125,-0.12939453125)"/>
<path d="M0 0 C0.91765137 -0.00315216 1.83530273 -0.00630432 2.78076172 -0.009552 C4.27760498 -0.00651566 4.27760498 -0.00651566 5.8046875 -0.00341797 C6.82191895 -0.00437469 7.83915039 -0.00533142 8.88720703 -0.00631714 C11.04264386 -0.00699908 13.19808272 -0.00514382 15.35351562 -0.00097656 C18.66541121 0.00437148 21.97717117 -0.0009211 25.2890625 -0.00732422 C27.37760447 -0.00666344 29.46614635 -0.00538228 31.5546875 -0.00341797 C32.55258301 -0.0054422 33.55047852 -0.00746643 34.57861328 -0.009552 C35.49626465 -0.00639984 36.41391602 -0.00324768 37.359375 0 C38.17132324 0.00079559 38.98327148 0.00159119 39.81982422 0.00241089 C41.6796875 0.12939453 41.6796875 0.12939453 42.6796875 1.12939453 C42.76752292 3.34794717 42.78663359 5.56927949 42.77734375 7.78955078 C42.7759288 8.45401718 42.77451385 9.11848358 42.77305603 9.80308533 C42.76744268 11.93273352 42.75488804 14.06227793 42.7421875 16.19189453 C42.73717421 17.63264823 42.73261101 19.07340356 42.72851562 20.51416016 C42.71746895 24.05260555 42.70019542 27.59098992 42.6796875 31.12939453 C41.6896875 31.12939453 40.6996875 31.12939453 39.6796875 31.12939453 C39.1846875 26.67439453 39.1846875 26.67439453 38.6796875 22.12939453 C37.90254395 22.91701172 37.12540039 23.70462891 36.32470703 24.51611328 C33.44857077 27.42836534 30.56588946 30.33406232 27.68115234 33.23779297 C26.43195048 34.49707166 25.18454694 35.75813689 23.93896484 37.02099609 C22.15147675 38.83265865 20.35768523 40.63786292 18.5625 42.44189453 C18.00410431 43.01061279 17.44570862 43.57933105 16.87039185 44.1652832 C15.51092865 45.52514103 14.09962143 46.83280626 12.6796875 48.12939453 C12.0196875 48.12939453 11.3596875 48.12939453 10.6796875 48.12939453 C11.12921494 43.77729821 13.99271037 41.39992825 16.95703125 38.48876953 C17.74685143 37.6982016 17.74685143 37.6982016 18.55262756 36.8916626 C19.66455106 35.78207536 20.78015885 34.67616955 21.89916992 33.57373047 C23.61624243 31.88032658 25.31953131 30.17391704 27.02148438 28.46533203 C28.10337545 27.38901529 29.18603187 26.31346721 30.26953125 25.23876953 C31.03679787 24.4701358 31.03679787 24.4701358 31.81956482 23.68597412 C35.44864716 20.12939453 35.44864716 20.12939453 37.6796875 20.12939453 C37.6796875 19.46939453 37.6796875 18.80939453 37.6796875 18.12939453 C24.4796875 18.45939453 11.2796875 18.78939453 -2.3203125 19.12939453 C-1.9903125 27.04939453 -1.6603125 34.96939453 -1.3203125 43.12939453 C1.061875 40.99470703 1.061875 40.99470703 3.4921875 38.81689453 C4.38550781 38.01638672 5.27882813 37.21587891 6.19921875 36.39111328 C8.60148247 34.26997504 8.60148247 34.26997504 10.31640625 32.33642578 C11.6796875 31.12939453 11.6796875 31.12939453 14.6796875 31.12939453 C13.34015572 34.15163377 11.9036885 36.0909391 9.45703125 38.30126953 C8.52600586 39.17525391 8.52600586 39.17525391 7.57617188 40.06689453 C6.27582533 41.27000679 4.96592779 42.46288192 3.64648438 43.64501953 C2.71739258 44.52673828 2.71739258 44.52673828 1.76953125 45.42626953 C1.20097412 45.94543945 0.63241699 46.46460938 0.04663086 46.99951172 C-1.99376399 49.84169898 -1.99376399 49.84169898 -2.3203125 57.12939453 C11.5396875 57.45939453 25.3996875 57.78939453 39.6796875 58.12939453 C39.6796875 51.85939453 39.6796875 45.58939453 39.6796875 39.12939453 C40.6696875 38.79939453 41.6596875 38.46939453 42.6796875 38.12939453 C42.70856564 41.60854394 42.72644437 45.08766284 42.7421875 48.56689453 C42.75056641 49.56011719 42.75894531 50.55333984 42.76757812 51.57666016 C42.77080078 52.52089844 42.77402344 53.46513672 42.77734375 54.43798828 C42.78258057 55.31253662 42.78781738 56.18708496 42.79321289 57.08813477 C42.6796875 59.12939453 42.6796875 59.12939453 41.6796875 60.12939453 C40.24228397 60.2275344 38.80012423 60.25737733 37.359375 60.25878906 C36.44172363 60.26194122 35.52407227 60.26509338 34.57861328 60.26834106 C33.58071777 60.26631683 32.58282227 60.2642926 31.5546875 60.26220703 C30.53745605 60.26316376 29.52022461 60.26412048 28.47216797 60.2651062 C26.31673114 60.26578814 24.16129228 60.26393288 22.00585938 60.25976562 C18.69396379 60.25441758 15.38220383 60.25971016 12.0703125 60.26611328 C9.98177053 60.2654525 7.89322865 60.26417135 5.8046875 60.26220703 C4.30784424 60.26524338 4.30784424 60.26524338 2.78076172 60.26834106 C1.86311035 60.2651889 0.94545898 60.26203674 0 60.25878906 C-0.81194824 60.25799347 -1.62389648 60.25719788 -2.46044922 60.25637817 C-4.3203125 60.12939453 -4.3203125 60.12939453 -5.3203125 59.12939453 C-5.41930811 57.3243008 -5.44830401 55.51532525 -5.44970703 53.70751953 C-5.45285919 52.54961914 -5.45601135 51.39171875 -5.45925903 50.19873047 C-5.4572348 48.93834961 -5.45521057 47.67796875 -5.453125 46.37939453 C-5.45456009 44.45401855 -5.45456009 44.45401855 -5.45602417 42.48974609 C-5.45750081 39.7693563 -5.45534769 37.04899928 -5.45068359 34.32861328 C-5.44498631 30.83454784 -5.44826549 27.3405592 -5.45425606 23.84649658 C-5.45873004 20.524123 -5.45560135 17.2017703 -5.453125 13.87939453 C-5.45514923 12.61901367 -5.45717346 11.35863281 -5.45925903 10.06005859 C-5.45610687 8.9021582 -5.45295471 7.74425781 -5.44970703 6.55126953 C-5.44851364 5.0135791 -5.44851364 5.0135791 -5.44729614 3.44482422 C-5.22729495 -0.56669474 -3.57352794 0.00350155 0 0 Z M-2.3203125 3.12939453 C-2.3203125 7.08939453 -2.3203125 11.04939453 -2.3203125 15.12939453 C-1.3303125 15.12939453 -0.3403125 15.12939453 0.6796875 15.12939453 C0.6796875 11.49939453 0.6796875 7.86939453 0.6796875 4.12939453 C13.5496875 4.12939453 26.4196875 4.12939453 39.6796875 4.12939453 C39.6796875 3.79939453 39.6796875 3.46939453 39.6796875 3.12939453 C25.8196875 3.12939453 11.9596875 3.12939453 -2.3203125 3.12939453 Z " fill="#0D0A05" transform="translate(11.3203125,-0.12939453125)"/>
<path d="M0 0 C12.87 0 25.74 0 39 0 C39 3.96 39 7.92 39 12 C26.13 12 13.26 12 0 12 C0 8.04 0 4.08 0 0 Z " fill="#F38585" transform="translate(12,4)"/>
<path d="M0 0 C5.94 0 11.88 0 18 0 C18 3.63 18 7.26 18 11 C9.09 11 0.18 11 -9 11 C-9 10.67 -9 10.34 -9 10 C-4.38 9.67 0.24 9.34 5 9 C4.67 7.35 4.34 5.7 4 4 C2.68 3.67 1.36 3.34 0 3 C0 2.01 0 1.02 0 0 Z " fill="#FD8B8B" transform="translate(33,4)"/>
<path d="M0 0 C0 1.65 0 3.3 0 5 C-2.72542267 6.36271133 -4.96087274 6.16923601 -8 6.1875 C-9.0725 6.20167969 -10.145 6.21585938 -11.25 6.23046875 C-14 6 -14 6 -16 4 C-15.9375 1.5 -15.9375 1.5 -15 -1 C-9.66830234 -4.25825968 -5.35002209 -2.29286661 0 0 Z " fill="#191111" transform="translate(38,8)"/>
<path d="M0 0 C0.66 0 1.32 0 2 0 C2 0.66 2 1.32 2 2 C3.65 2 5.3 2 7 2 C6.67 2.99 6.34 3.98 6 5 C2.7 5 -0.6 5 -4 5 C-4.33 4.01 -4.66 3.02 -5 2 C-3.35 2 -1.7 2 0 2 C0 1.34 0 0.68 0 0 Z " fill="#CCCCCC" transform="translate(29,7)"/>
<path d="M0 0 C0.33 0.99 0.66 1.98 1 3 C-0.32 3 -1.64 3 -3 3 C-2.67 3.66 -2.34 4.32 -2 5 C0.35599235 5.46751788 0.35599235 5.46751788 3.0625 5.625 C3.98160156 5.69976563 4.90070312 5.77453125 5.84765625 5.8515625 C6.55792969 5.90054687 7.26820312 5.94953125 8 6 C8 6.33 8 6.66 8 7 C4.04 7 0.08 7 -4 7 C-4.33 5.35 -4.66 3.7 -5 2 C-3.35 1.34 -1.7 0.68 0 0 Z " fill="#060404" transform="translate(27,6)"/>
</svg>
