<?xml version="1.0" encoding="UTF-8"?>
<svg version="1.1" xmlns="http://www.w3.org/2000/svg" width="60" height="60">
<path d="M0 0 C3.96 0 7.92 0 12 0 C12.33 0.33 12.66 0.66 13 1 C14.74467283 1.32200337 16.49611339 1.60769643 18.25 1.875 C23.6819464 2.8012165 23.6819464 2.8012165 26.5 4.5625 C30.04347181 6.59999629 33.44202956 6.50902325 37.4765625 6.69140625 C40 7 40 7 43 9 C43 9.99 43 10.98 43 12 C43.66386719 11.71125 44.32773437 11.4225 45.01171875 11.125 C45.89472656 10.75375 46.77773438 10.3825 47.6875 10 C48.55761719 9.62875 49.42773438 9.2575 50.32421875 8.875 C53.10240431 7.96651304 55.10064436 7.68388627 58 8 C60 10 60 10 60.125 13.125 C60.08375 14.07375 60.0425 15.0225 60 16 C56.96235911 17.6326083 53.91921677 19.25469108 50.875 20.875 C50.0190625 21.33519531 49.163125 21.79539062 48.28125 22.26953125 C41.43354022 25.9040849 34.96171112 29.28133788 27 28 C22.24914496 26.53071617 17.6289285 24.82036514 13 23 C12.67 23.33 12.34 23.66 12 24 C8.04 24 4.08 24 0 24 C0 16.08 0 8.16 0 0 Z M3 3 C3 4.65 3 6.3 3 8 C3.66 8 4.32 8 5 8 C5 7.01 5 6.02 5 5 C5.99 5 6.98 5 8 5 C8.33 5.99 8.66 6.98 9 8 C9 6.35 9 4.7 9 3 C7.02 3 5.04 3 3 3 Z M13 6 C13 6.66 13 7.32 13 8 C13.8353125 8.03867187 13.8353125 8.03867187 14.6875 8.078125 C18.95595409 8.39537497 22.20576233 8.9028236 25.9375 11.0625 C30.53040208 13.63266945 34.86190309 13.37903994 40 13 C39.67 12.01 39.34 11.02 39 10 C37.89591797 9.94392578 37.89591797 9.94392578 36.76953125 9.88671875 C28.54556255 9.33266009 28.54556255 9.33266009 25.4375 7.4375 C21.54125297 5.13971329 17.41842138 5.76835461 13 6 Z M47.875 13.5 C46.77929688 13.9640625 45.68359375 14.428125 44.5546875 14.90625 C43.71164063 15.2671875 42.86859375 15.628125 42 16 C42 16.66 42 17.32 42 18 C42.66386719 17.79503906 43.32773437 17.59007812 44.01171875 17.37890625 C45.33623047 16.97478516 45.33623047 16.97478516 46.6875 16.5625 C47.55761719 16.29566406 48.42773438 16.02882813 49.32421875 15.75390625 C51.87025921 15.03655471 54.4003423 14.482459 57 14 C56.67 13.01 56.34 12.02 56 11 C52.97474767 11 50.64420848 12.32161341 47.875 13.5 Z " fill="#040302" transform="translate(0,30)"/>
<path d="M0 0 C6.48541187 -0.36030066 10.32128916 -0.19585075 15.90625 3.04296875 C19.72626016 4.78905548 23.85071106 4.82994717 28 5 C27.67 5.66 27.34 6.32 27 7 C24.45058627 7.31241371 21.99638487 7.51303421 19.4375 7.625 C18.37112305 7.68300781 18.37112305 7.68300781 17.28320312 7.7421875 C15.52257575 7.83671783 13.76132272 7.91945817 12 8 C11.67 8.99 11.34 9.98 11 11 C11.66 11 12.32 11 13 11 C13 10.34 13 9.68 13 9 C21.415 8.505 21.415 8.505 30 8 C30 8.66 30 9.32 30 10 C30.66386719 9.71125 31.32773437 9.4225 32.01171875 9.125 C32.89472656 8.75375 33.77773438 8.3825 34.6875 8 C35.55761719 7.62875 36.42773438 7.2575 37.32421875 6.875 C40.0572002 5.98129512 42.14700934 5.83550324 45 6 C41.18991489 9.2380616 36.82568346 11.13672724 32.3125 13.1875 C31.54744141 13.55552734 30.78238281 13.92355469 29.99414062 14.30273438 C23.95458651 17.04521093 18.49251451 18.28489501 11.98120117 16.42260742 C10.09754951 15.7023947 8.26540122 14.85183746 6.4375 14 C5.81037109 13.71382812 5.18324219 13.42765625 4.53710938 13.1328125 C3.01775571 12.43692533 1.50777013 11.7206412 0 11 C0 7.37 0 3.74 0 0 Z " fill="#F6C199" transform="translate(12,38)"/>
<path d="M0 0 C2.5 2.0625 2.5 2.0625 4 5 C4.0625 8.625 4.0625 8.625 3 12 C0.17708663 14.58094937 -1.30522028 15.01389559 -5.125 14.9375 C-8 14 -8 14 -9.875 12.3125 C-11.35810604 9.26389315 -11.48891657 7.35257076 -11 4 C-8.07075041 -0.45245938 -5.11843736 -0.822606 0 0 Z M-7 4 C-7.33 5.65 -7.66 7.3 -8 9 C-6.515 9.99 -6.515 9.99 -5 11 C-5 8.69 -5 6.38 -5 4 C-5.66 4 -6.32 4 -7 4 Z " fill="#020100" transform="translate(50,21)"/>
<path d="M0 0 C1.9375 1.125 1.9375 1.125 3 3 C3.50030235 6.93094707 3.5996142 9.1005787 1.375 12.4375 C-1.75683492 14.49791771 -3.31544773 14.6767545 -7 14 C-9.9375 11.9375 -9.9375 11.9375 -12 9 C-12.06625411 5.1572617 -11.81899419 3.00799284 -9.375 0 C-5.91616747 -1.45635054 -3.58701629 -0.91305869 0 0 Z M-7 3 C-7.66 4.32 -8.32 5.64 -9 7 C-8.01 7.99 -7.02 8.98 -6 10 C-6 7.69 -6 5.38 -6 3 C-6.33 3 -6.66 3 -7 3 Z " fill="#050301" transform="translate(46,3)"/>
<path d="M0 0 C1.9375 1.125 1.9375 1.125 3 3 C3.50030235 6.93094707 3.5996142 9.1005787 1.375 12.4375 C-1.75683492 14.49791771 -3.31544773 14.6767545 -7 14 C-9.9375 11.9375 -9.9375 11.9375 -12 9 C-12.06625411 5.1572617 -11.81899419 3.00799284 -9.375 0 C-5.91616747 -1.45635054 -3.58701629 -0.91305869 0 0 Z M-7 3 C-7.66 4.32 -8.32 5.64 -9 7 C-8.01 8.32 -7.02 9.64 -6 11 C-5.34 10.67 -4.68 10.34 -4 10 C-4.33 7.69 -4.66 5.38 -5 3 C-5.66 3 -6.32 3 -7 3 Z " fill="#030201" transform="translate(32,17)"/>
<path d="M0 0 C0.99 0 1.98 0 3 0 C5.25998595 3.59462331 5.20868087 6.56595675 5.125 10.75 C5.10695313 11.92046875 5.08890625 13.0909375 5.0703125 14.296875 C5.03550781 15.63492188 5.03550781 15.63492188 5 17 C2.36 17 -0.28 17 -3 17 C-3 12.71 -3 8.42 -3 4 C-2.01 3.67 -1.02 3.34 0 3 C0 2.01 0 1.02 0 0 Z " fill="#A75B5B" transform="translate(5,35)"/>
<path d="M0 0 C4.875 0.875 4.875 0.875 6 2 C6.1875 4.4375 6.1875 4.4375 6 7 C5.34 7.66 4.68 8.32 4 9 C1.875 8.625 1.875 8.625 0 8 C-1.125 2.25 -1.125 2.25 0 0 Z " fill="#F2AE52" transform="translate(45,24)"/>
<path d="M0 0 C3.69230769 0.69230769 3.69230769 0.69230769 5 2 C5.1875 4.4375 5.1875 4.4375 5 7 C4.34 7.66 3.68 8.32 3 9 C0.875 8.625 0.875 8.625 -1 8 C-1.04241723 5.66705225 -1.04092937 3.33297433 -1 1 C-0.67 0.67 -0.34 0.34 0 0 Z " fill="#FAB454" transform="translate(41,5)"/>
<path d="M0 0 C1.32 0.66 2.64 1.32 4 2 C4 3.65 4 5.3 4 7 C2.02 7.99 2.02 7.99 0 9 C-2 6 -2 6 -1.6875 3.375 C-1 1 -1 1 0 0 Z " fill="#F9B354" transform="translate(28,19)"/>
</svg>
