<svg width="60" height="60" viewBox="0 0 60 60" fill="none" xmlns="http://www.w3.org/2000/svg">
<path d="M10.1015 11.7188V44.453H41.9531V11.7188H10.1015ZM32.9805 33.3192C32.9805 34.1611 32.298 34.8436 31.4561 34.8436H15.7549C14.913 34.8436 14.2305 34.1611 14.2305 33.3192V17.618C14.2305 16.7761 14.913 16.0936 15.7549 16.0936H31.4561C32.298 16.0936 32.9805 16.7761 32.9805 17.618V33.3192Z" fill="#EDF2FA"/>
<path d="M49.8633 34.922C49.8633 35.8517 50.4062 36.6523 51.1903 37.0313H58.8281V34.8002L49.8633 23.1387V34.922Z" fill="#FF8C8C"/>
<path d="M49.1016 36.7383C47.807 36.7383 46.7578 35.6891 46.7578 34.3946V22.0464H44.9217V44.5313H58.8281V36.7383H49.1016Z" fill="#FF8C8C"/>
<path d="M53.2031 45C53.2031 46.8123 51.7342 48.2812 49.9219 48.2812C48.1096 48.2812 46.6406 46.8123 46.6406 45C46.6406 43.1877 48.1096 41.7188 49.9219 41.7188C51.7342 41.7188 53.2031 43.1877 53.2031 45Z" fill="#898998"/>
<path d="M24.3361 45C24.3361 46.8123 22.8671 48.2812 21.0548 48.2812C19.2426 48.2812 17.7736 46.8123 17.7736 45C17.7736 43.1877 19.2426 41.7188 21.0548 41.7188C22.8671 41.7188 24.3361 43.1877 24.3361 45Z" fill="#898998"/>
<path d="M17.7736 45C17.7736 46.8123 16.3046 48.2812 14.4923 48.2812C12.6801 48.2812 11.2111 46.8123 11.2111 45C11.2111 43.1877 12.6801 41.7188 14.4923 41.7188C16.3046 41.7188 17.7736 43.1877 17.7736 45Z" fill="#898998"/>
<path d="M31.3779 16.4062H18.6017C18.0954 16.6544 17.7461 17.173 17.7461 17.7745V33.4758C17.7461 34.3176 18.4286 35.0002 19.2705 35.0002H32.0471C32.5529 34.752 32.9022 34.2334 32.9022 33.6319V17.9306C32.9022 17.0888 32.2197 16.4062 31.3779 16.4062Z" fill="#FFB954"/>
<path d="M20.5669 16.4062H26.488V24.3008H20.5669V16.4062Z" fill="white"/>
<path d="M59.7574 34.086L49.9525 21.3318C49.7305 21.0434 49.3872 20.8745 49.0233 20.8745H43.125V11.7188C43.125 11.0715 42.6004 10.5469 41.9531 10.5469H31.3477C30.7004 10.5469 30.1758 11.0715 30.1758 11.7188C30.1758 12.366 30.7004 12.8906 31.3477 12.8906H40.7812V43.3594H25.1935C24.5384 41.7137 22.9308 40.5469 21.0548 40.5469C19.7575 40.5469 18.588 41.1049 17.7736 41.993C16.9588 41.1049 15.7896 40.5469 14.4923 40.5469C12.616 40.5469 11.0083 41.7137 10.3537 43.3594H6.27365V31.0977H12.9803V33.6319C12.9803 35.1187 14.1902 36.3281 15.6766 36.3281H31.3779C32.8647 36.3281 34.0741 35.1187 34.0741 33.6319V17.9306C34.0741 16.4438 32.8647 15.2344 31.3779 15.2344H15.6766C14.1902 15.2344 12.9803 16.4438 12.9803 17.9306V23.129H9.58191C8.93509 23.129 8.41003 23.654 8.41003 24.3008C8.41003 24.9481 8.93509 25.4727 9.58191 25.4727H12.9803V28.754H6.27365V12.8906H22.5389C23.1862 12.8906 23.7108 12.366 23.7108 11.7188C23.7108 11.0715 23.1862 10.5469 22.5389 10.5469H5.10178C4.4545 10.5469 3.9299 11.0715 3.9299 11.7188V28.754H1.17188C0.524597 28.754 0 29.279 0 29.9258C0 30.5731 0.524597 31.0977 1.17188 31.0977H3.9299V44.5312C3.9299 45.1785 4.4545 45.7031 5.10178 45.7031H10.0951C10.4333 47.8258 12.2758 49.4531 14.4923 49.4531C15.7896 49.4531 16.9588 48.8951 17.7736 48.007C18.588 48.8951 19.7575 49.4531 21.0548 49.4531C23.2709 49.4531 25.1138 47.8258 25.4517 45.7031H45.5246C45.8629 47.8258 47.7058 49.4531 49.9219 49.4531C52.1379 49.4531 53.9809 47.8258 54.3192 45.7031H58.8281C59.4754 45.7031 60 45.1785 60 44.5312V34.8001C60 34.5419 59.9144 34.2906 59.7574 34.086ZM25.3162 17.5781V23.129H21.7387V17.5781H25.3162ZM15.3246 17.9306C15.3246 17.7365 15.4825 17.5781 15.677 17.5781H19.395V24.3008C19.395 24.9481 19.92 25.4727 20.5669 25.4727H26.488C27.1353 25.4727 27.6599 24.9481 27.6599 24.3008V17.5781H31.3783C31.5724 17.5781 31.7308 17.7365 31.7308 17.9306V33.6319C31.7308 33.826 31.5724 33.9844 31.3783 33.9844H15.6766C15.4825 33.9844 15.3241 33.826 15.3241 33.6319V17.9306H15.3246ZM57.6562 35.1984V35.8594H48.9844C48.338 35.8594 47.8125 35.3339 47.8125 34.6875V23.2182H48.446L57.6562 35.1984ZM14.4923 47.1094C13.3292 47.1094 12.383 46.1632 12.383 45C12.383 43.8368 13.3292 42.8906 14.4923 42.8906C15.6555 42.8906 16.6017 43.8368 16.6017 45C16.6017 46.1632 15.6555 47.1094 14.4923 47.1094ZM21.0548 47.1094C19.8917 47.1094 18.9455 46.1632 18.9455 45C18.9455 43.8368 19.8917 42.8906 21.0548 42.8906C22.218 42.8906 23.1642 43.8368 23.1642 45C23.1642 46.1632 22.218 47.1094 21.0548 47.1094ZM49.9219 47.1094C48.7587 47.1094 47.8125 46.1632 47.8125 45C47.8125 43.8368 48.7587 42.8906 49.9219 42.8906C51.0851 42.8906 52.0312 43.8368 52.0312 45C52.0312 46.1632 51.0851 47.1094 49.9219 47.1094ZM54.0605 43.3594C53.4059 41.7137 51.7982 40.5469 49.9219 40.5469C48.0455 40.5469 46.4378 41.7137 45.7832 43.3594H43.125V23.2182H45.4688V34.6875C45.4688 36.6261 47.0457 38.2031 48.9844 38.2031H57.6562V43.3594H54.0605Z" fill="black"/>
<path d="M25.4933 31.3938H28.7247C29.3719 31.3938 29.8965 30.8692 29.8965 30.2219C29.8965 29.5746 29.3719 29.05 28.7247 29.05H25.4933C24.8465 29.05 24.3214 29.5746 24.3214 30.2219C24.3214 30.8692 24.846 31.3938 25.4933 31.3938Z" fill="black"/>
<path d="M27.1088 12.8906C27.4182 12.8906 27.7194 12.7652 27.9373 12.5473C28.1566 12.3294 28.2806 12.0268 28.2806 11.7188C28.2806 11.4107 28.1566 11.1081 27.9373 10.8902C27.7194 10.6723 27.4182 10.5469 27.1088 10.5469C26.8007 10.5469 26.4986 10.6723 26.2807 10.8902C26.0623 11.1081 25.9369 11.4107 25.9369 11.7188C25.9369 12.0268 26.0623 12.3294 26.2807 12.5473C26.4986 12.7652 26.8007 12.8906 27.1088 12.8906Z" fill="black"/>
</svg>
