<svg width="60" height="60" viewBox="0 0 60 60" fill="none" xmlns="http://www.w3.org/2000/svg">
<g clip-path="url(#clip0_21_336)">
<path d="M28.8281 1.17188H35.1562V12.4219H28.8281V1.17188Z" fill="#FEDA9B"/>
<path d="M5.15625 1.17188H11.4844V12.4219H5.15625V1.17188Z" fill="#FEDA9B"/>
<path d="M52.5 1.17188H58.8281V12.4219H52.5V1.17188Z" fill="#FEDA9B"/>
<path d="M43.2642 46.0749L36.6074 44.6966C35.6694 44.5025 34.9466 43.7985 34.7012 42.9104C34.4568 43.7985 33.734 44.503 32.7965 44.698L26.1832 46.0713C22.1722 46.9048 19.297 50.4388 19.297 54.5353V58.8282H50.1562V54.5399C50.1562 50.4415 47.2778 46.9062 43.2642 46.0749Z" fill="#FF8C8C"/>
<path d="M28.8579 41.1648H25.1262V43.9453L29.9744 51.6673L31.8402 48.6955L28.8579 43.9453V41.1648Z" fill="white"/>
<path d="M34.8225 41.1648H28.8579V43.9453L31.8402 48.6955L34.8225 43.9453V41.1648Z" fill="#FFC89F"/>
<path d="M33.2135 17.271C29.9707 18.5523 27.675 21.7127 27.675 25.4114V32.4129C27.675 36.1116 29.9707 39.272 33.2135 40.5533C36.4568 39.272 38.752 36.1116 38.752 32.4129V25.4114C38.752 21.7127 36.4568 18.5523 33.2135 17.271Z" fill="#FFC89F"/>
<path d="M38.1912 23.9017L38.5538 23.5593C37.934 20.6822 35.8992 18.3321 33.2144 17.2705C29.9712 18.5518 27.675 21.7122 27.675 25.4114V28.8666L27.702 28.873C31.4305 28.6871 34.9686 27.1243 37.6208 24.472L38.1912 23.9017Z" fill="#FFB954"/>
<path d="M43.5017 44.9272L36.8449 43.5489C36.2292 43.4216 35.7825 42.8728 35.7825 42.2438V40.4704C38.2878 38.6673 39.9239 35.7285 39.9239 32.4129V25.4114C39.9239 19.9393 35.4721 15.4871 30 15.4871C24.5279 15.4871 20.0761 19.9393 20.0761 25.4114V32.4129C20.0761 35.706 21.6898 38.6279 24.1667 40.4343V42.2452C24.1667 42.8737 23.7199 43.4225 23.1047 43.5503L16.4919 44.924C11.9604 45.8652 8.67188 49.9072 8.67188 54.5352V58.8281C8.67188 59.4754 9.19647 60 9.84375 60H35.8594C36.5067 60 37.0312 59.4754 37.0312 58.8281C37.0312 58.1808 36.5067 57.6562 35.8594 57.6562H11.0156V54.5352C11.0156 51.0123 13.5191 47.9352 16.9684 47.2188L23.5817 45.845C23.9731 45.7635 24.3398 45.6198 24.6725 45.4262L28.9819 52.2903C29.1966 52.6318 29.5711 52.8392 29.9744 52.8392C30.3777 52.8392 30.7526 52.6318 30.9668 52.2903L35.2771 45.4253C35.6104 45.6189 35.9775 45.7631 36.3698 45.8441L43.0266 47.2224C46.4786 47.937 48.9844 51.0146 48.9844 54.5398V57.6562H47.1094C46.4621 57.6562 45.9375 58.1808 45.9375 58.8281C45.9375 59.4754 46.4621 60 47.1094 60H50.1562C50.8035 60 51.3281 59.4754 51.3281 58.8281V54.5398C51.3281 49.9091 48.0368 45.8661 43.5017 44.9272ZM30 17.8308C33.4067 17.8308 36.2947 20.0899 37.2473 23.1885L36.7923 23.6435C34.1638 26.272 30.6693 27.7194 26.9518 27.7194H22.4199V25.4114C22.4199 21.2315 25.8202 17.8308 30 17.8308ZM22.4199 32.4129V30.0632H26.9518C30.8968 30.0632 34.6275 28.6674 37.5801 26.1099V32.4129C37.5801 36.5927 34.1798 39.993 30 39.993C25.8202 39.993 22.4199 36.5927 22.4199 32.4129ZM29.9744 49.4632L26.2656 43.5558C26.4235 43.1461 26.5105 42.7034 26.5105 42.2452V41.7014C27.5967 42.1111 28.7723 42.3367 30 42.3367C31.2085 42.3367 32.3666 42.1188 33.4387 41.7215V42.2438C33.4387 42.7025 33.5257 43.1451 33.6836 43.5553L29.9744 49.4632Z" fill="black"/>
<path d="M41.8359 57.6562C41.5279 57.6562 41.2253 57.7817 41.0074 57.9996C40.7895 58.2175 40.6641 58.5201 40.6641 58.8281C40.6641 59.1362 40.7895 59.4388 41.0074 59.6567C41.2253 59.8746 41.5279 60 41.8359 60C42.144 60 42.4466 59.8746 42.6645 59.6567C42.8824 59.4388 43.0078 59.1362 43.0078 58.8281C43.0078 58.5201 42.8824 58.2175 42.6645 57.9996C42.4466 57.7817 42.144 57.6562 41.8359 57.6562Z" fill="black"/>
<path d="M24.8438 13.5938H35.1562C35.8035 13.5938 36.3281 13.0692 36.3281 12.4219V1.17188C36.3281 0.524597 35.8035 0 35.1562 0H24.8438C24.1965 0 23.6719 0.524597 23.6719 1.17188V12.4219C23.6719 13.0692 24.1965 13.5938 24.8438 13.5938ZM26.0156 2.34375H33.9844V11.25H26.0156V2.34375Z" fill="black"/>
<path d="M12.6562 12.4219V1.17188C12.6562 0.524597 12.1317 0 11.4844 0H1.17188C0.524597 0 0 0.524597 0 1.17188V12.4219C0 13.0692 0.524597 13.5938 1.17188 13.5938H11.4844C12.1317 13.5938 12.6562 13.0692 12.6562 12.4219ZM10.3125 11.25H2.34375V2.34375H10.3125V11.25Z" fill="black"/>
<path d="M58.8281 0H48.5156C47.8683 0 47.3438 0.524597 47.3438 1.17188V12.4219C47.3438 13.0692 47.8683 13.5938 48.5156 13.5938H58.8281C59.4754 13.5938 60 13.0692 60 12.4219V1.17188C60 0.524597 59.4754 0 58.8281 0ZM57.6562 11.25H49.6875V2.34375H57.6562V11.25Z" fill="black"/>
<path d="M10.6558 19.648C10.1981 20.1053 10.1981 20.8474 10.6558 21.3051L13.8721 24.5218C14.101 24.7507 14.4008 24.8651 14.7006 24.8651C15.0009 24.8651 15.3008 24.7507 15.5296 24.5218C15.9869 24.0641 15.9869 23.322 15.5296 22.8643L12.3129 19.648C11.8552 19.1902 11.1136 19.1902 10.6558 19.648Z" fill="black"/>
<path d="M8.51944 15.8542C8.30154 15.6363 7.99942 15.5122 7.69089 15.5122C7.38281 15.5122 7.08069 15.6363 6.86234 15.8542C6.64444 16.0734 6.51901 16.3746 6.51901 16.6841C6.51901 16.9922 6.64444 17.2934 6.86234 17.5126C7.08069 17.7305 7.38281 17.8546 7.69089 17.8546C7.99942 17.8546 8.30154 17.7305 8.51944 17.5126C8.73734 17.2934 8.86276 16.9922 8.86276 16.6841C8.86276 16.3746 8.73734 16.0734 8.51944 15.8542Z" fill="black"/>
<path d="M45.2994 24.8649C45.5992 24.8649 45.899 24.7505 46.1279 24.522L50.7088 19.9407C51.1665 19.483 51.1665 18.7409 50.7088 18.2832C50.2515 17.8259 49.5094 17.8259 49.0517 18.2832L44.4704 22.8645C44.0126 23.3222 44.0126 24.0643 44.4704 24.522C44.6992 24.7505 44.9991 24.8649 45.2994 24.8649Z" fill="black"/>
</g>
<defs>
<clipPath id="clip0_21_336">
<rect width="60" height="60" fill="white"/>
</clipPath>
</defs>
</svg>
