<svg width="60" height="60" viewBox="0 0 60 60" fill="none" xmlns="http://www.w3.org/2000/svg">
<g clip-path="url(#clip0_21_281)">
<path d="M32.8976 1.22461V34.8405L40.6522 48.2438H58.7755V1.22461H32.8976Z" fill="#FF8C8C"/>
<path d="M40.5295 23.7547V58.7741H1.22452V11.7549H28.5274L40.5295 23.7547Z" fill="white"/>
<path d="M40.5295 23.7547H28.5274V11.7549L40.5295 23.7547Z" fill="#C5CFD4"/>
<path d="M58.7755 0H19.4705C18.7939 0 18.246 0.548401 18.246 1.22452V10.5304H1.22452C0.548401 10.5304 0 11.0783 0 11.7549V58.7741C0 59.4502 0.548401 59.9986 1.22452 59.9986H40.5295C41.2061 59.9986 41.754 59.4502 41.754 58.7741V49.4682H58.7755C59.4516 49.4682 60 48.9198 60 48.2437V1.22452C60 0.548401 59.4516 0 58.7755 0V0ZM2.44904 57.5496V12.9794H27.3029V23.7547C27.3029 24.4308 27.8513 24.9792 28.5274 24.9792H39.3013V57.5496H2.44904ZM33.6722 18.6301L37.5732 22.5302H29.7519V14.7107L33.6722 18.6301ZM57.551 47.0192H41.754V23.7547C41.754 23.4302 41.6249 23.1184 41.3951 22.8886L29.393 10.8888C29.1637 10.6595 28.8519 10.5304 28.5274 10.5304H20.695V2.44904H57.551V47.0192Z" fill="black"/>
<path d="M35.5994 30.2444H6.49704C5.82047 30.2444 5.27252 29.696 5.27252 29.0199C5.27252 28.3438 5.82047 27.7954 6.49704 27.7954H35.5994C36.2755 27.7954 36.8239 28.3438 36.8239 29.0199C36.8239 29.696 36.2755 30.2444 35.5994 30.2444Z" fill="black"/>
<path d="M35.592 35.5096H6.48972C5.81314 35.5096 5.2652 34.9612 5.2652 34.2851C5.2652 33.6089 5.81314 33.0605 6.48972 33.0605H35.592C36.2682 33.0605 36.8166 33.6089 36.8166 34.2851C36.8166 34.9612 36.2682 35.5096 35.592 35.5096Z" fill="black"/>
<path d="M35.592 40.7747H29.6443C28.9682 40.7747 28.4198 40.2263 28.4198 39.5502C28.4198 38.8736 28.9682 38.3257 29.6443 38.3257H35.592C36.2682 38.3257 36.8166 38.8736 36.8166 39.5502C36.8166 40.2263 36.2682 40.7747 35.592 40.7747Z" fill="black"/>
<path d="M25.6613 40.7747H25.6458C24.9692 40.7747 24.4212 40.2263 24.4212 39.5502C24.4212 38.8736 24.9692 38.3257 25.6458 38.3257H25.6613C26.3379 38.3257 26.8858 38.8736 26.8858 39.5502C26.8858 40.2263 26.3379 40.7747 25.6613 40.7747Z" fill="black"/>
<path d="M21.7337 40.7747H6.48972C5.81314 40.7747 5.2652 40.2263 5.2652 39.5502C5.2652 38.8741 5.81314 38.3257 6.48972 38.3257H21.7337C22.4103 38.3257 22.9582 38.8741 22.9582 39.5502C22.9582 40.2263 22.4103 40.7747 21.7337 40.7747Z" fill="black"/>
<path d="M12.084 46.1101C10.7831 46.7414 9.88586 48.0748 9.88586 49.618C9.88586 51.1615 10.7831 52.495 12.084 53.1263C13.3855 52.495 14.2827 51.1615 14.2827 49.618C14.2827 48.0748 13.3855 46.7414 12.084 46.1101Z" fill="#FF8C8C"/>
<path d="M21.048 24.9793H6.49704C5.82047 24.9793 5.27252 24.4309 5.27252 23.7548C5.27252 23.0787 5.82047 22.5303 6.49704 22.5303H21.048C21.7241 22.5303 22.2725 23.0787 22.2725 23.7548C22.2725 24.4309 21.7241 24.9793 21.048 24.9793Z" fill="black"/>
<path d="M17.049 19.714H6.49704C5.82047 19.714 5.27252 19.166 5.27252 18.4894C5.27252 17.8133 5.82047 17.2654 6.49704 17.2654H17.049C17.7255 17.2654 18.2735 17.8133 18.2735 18.4894C18.2735 19.166 17.7255 19.714 17.049 19.714Z" fill="black"/>
<path d="M21.048 19.714H21.032C20.3558 19.714 19.8074 19.166 19.8074 18.4894C19.8074 17.8133 20.3558 17.2654 21.032 17.2654H21.048C21.7241 17.2654 22.2725 17.8133 22.2725 18.4894C22.2725 19.166 21.7241 19.714 21.048 19.714Z" fill="black"/>
<path d="M9.83826 54.74C9.77921 54.74 9.71878 54.7358 9.65836 54.7267C7.15668 54.3586 5.26978 52.171 5.27023 49.6391C5.27023 46.8037 7.5769 44.4966 10.4123 44.4966C12.9337 44.4966 15.0659 46.2988 15.4839 48.7817C15.596 49.4487 15.146 50.0804 14.4791 50.1925C13.813 50.3051 13.1808 49.8547 13.0687 49.1877C12.8503 47.8886 11.7329 46.9456 10.4123 46.9456C8.92731 46.9456 7.71881 48.1537 7.71881 49.6391C7.71881 50.9657 8.70621 52.1115 10.0154 52.3042C10.6842 52.4026 11.1465 53.0252 11.0481 53.694C10.9584 54.3023 10.4356 54.74 9.83826 54.74Z" fill="black"/>
<path d="M20.278 54.6533C19.9828 54.6533 19.687 54.5475 19.4522 54.3324C18.9528 53.876 18.9185 53.1014 19.3744 52.6025L22.0555 49.67C22.4968 49.1876 23.1102 48.9179 23.741 48.9285C24.3736 48.9404 24.9806 49.2347 25.4068 49.7369L26.0902 50.5412L27.6805 48.6685C28.1447 48.1214 28.8318 47.8523 29.5175 47.9484C30.1836 48.0413 30.7622 48.4629 31.0872 49.0859L31.3747 49.502L34.6326 45.3144C35.0482 44.7807 35.8173 44.6845 36.351 45.1002C36.8848 45.5154 36.9809 46.2844 36.5653 46.8182L32.2815 52.3237C32.0421 52.6313 31.6708 52.8062 31.2804 52.7957C30.8904 52.7847 30.5292 52.5883 30.3076 52.2674L29.1998 50.6625L27.8819 52.2147C27.4228 52.7554 26.77 53.0653 26.0902 53.0653C25.4105 53.0653 24.7577 52.7554 24.2981 52.2147L23.6957 51.5052L21.1821 54.255C20.9404 54.5191 20.6099 54.6533 20.278 54.6533Z" fill="black"/>
<path d="M13.2527 53.5767H13.2372C12.5606 53.5767 12.0126 53.0283 12.0126 52.3522C12.0126 51.6756 12.5606 51.1277 13.2372 51.1277H13.2527C13.9293 51.1277 14.4772 51.6756 14.4772 52.3522C14.4772 53.0283 13.9293 53.5767 13.2527 53.5767Z" fill="black"/>
</g>
<defs>
<clipPath id="clip0_21_281">
<rect width="60" height="60" fill="white"/>
</clipPath>
</defs>
</svg>
