<svg width="60" height="60" viewBox="0 0 60 60" fill="none" xmlns="http://www.w3.org/2000/svg">
<path d="M10.7009 23.7377C10.8651 21.8682 10.5036 18.2178 5.93484 15.676C6.16594 18.446 7.10286 22.8997 10.7009 23.7377Z" fill="#FFC66C"/>
<path d="M15.1151 30.9257C17.2019 29.6482 19.6478 26.9313 19.1097 21.2898C16.2623 23.3207 12.8431 26.8218 15.1151 30.9257Z" fill="#FFC66C"/>
<path d="M12.582 35.4708C12.1838 33.4652 10.4236 29.5081 4.31216 28.9753C5.63967 31.7598 8.45827 36.2468 12.582 35.4708Z" fill="#FFC66C"/>
<path d="M23.0457 32.1399C20.6913 34.9021 18.0581 39.3311 21.2293 42.9182C23.0483 41.1242 24.9713 37.7457 23.0457 32.1399Z" fill="#FFC66C"/>
<path d="M20.9774 46.7924C19.4361 44.744 15.2164 41.0503 7.76721 44.2749C10.7549 46.7067 16.7153 50.5518 20.9774 46.7924Z" fill="#FFC66C"/>
<path d="M41.827 55.929C41.7628 55.929 41.6976 55.9236 41.6322 55.9127L41.5893 55.9056C41.0164 55.8098 40.6106 55.3134 40.6106 54.7511C40.6106 54.6869 40.6159 54.6219 40.6269 54.5564C40.7336 53.918 41.3379 53.487 41.9761 53.5939L42.019 53.6011C42.5918 53.6969 42.9977 54.1933 42.9977 54.7554C42.9977 54.8197 42.9924 54.8847 42.9814 54.9501C42.8856 55.5231 42.3892 55.929 41.827 55.929Z" fill="black"/>
<path d="M13.8304 15.1811C15.5419 14.1967 17.8252 11.9677 17.2571 7.19287C15.0168 8.88518 12.1142 11.8821 13.8304 15.1811Z" fill="#FFC66C"/>
<path d="M56.4994 16.6541C51.6944 19.2412 51.3913 23.0389 51.5772 24.8998C55.3624 24.1338 56.2877 19.4452 56.4994 16.6541Z" fill="#FFC66C"/>
<path d="M43.6884 20.8586C43.4127 26.7728 46.5743 29.2099 48.6684 30.1699C50.2795 26.092 46.4499 22.6878 43.6884 20.8586Z" fill="#FFC66C"/>
<path d="M49.86 37.608C54.0428 38.2524 56.8562 33.4887 58.1002 30.7795C51.694 31.3763 50.1189 35.7599 49.86 37.608Z" fill="#FFC66C"/>
<path d="M42.7658 42.8251C45.3761 38.8559 41.7331 34.1058 39.4191 31.7002C37.4882 38.2486 40.9377 41.5778 42.7658 42.8251Z" fill="#FFC66C"/>
<path d="M54.309 46.4221C45.5169 43.4524 41.7076 50.425 41.8059 50.6509C41.9239 50.8402 42.0446 51.0198 42.1672 51.1916C46.8047 52.6867 52.3546 48.1957 54.309 46.4221Z" fill="#FFC66C"/>
<path d="M18.1731 55.929C17.6109 55.929 17.1146 55.5232 17.0188 54.9502C17.0078 54.8846 17.0025 54.8197 17.0025 54.7554C17.0025 54.1932 17.4084 53.6969 17.9813 53.6011L18.0242 53.5939C18.6625 53.4869 19.2666 53.9182 19.3734 54.5564C19.3843 54.6219 19.3896 54.6869 19.3896 54.7512C19.3896 55.3134 18.9838 55.8097 18.4109 55.9056L18.368 55.9127C18.3025 55.9236 18.2373 55.929 18.1731 55.929Z" fill="black"/>
<path d="M45.3194 6.68384C44.9079 11.2982 47.2285 13.4251 48.9041 14.3486C50.2758 11.1776 47.4862 8.32025 45.3194 6.68384Z" fill="#FFC66C"/>
<path d="M29.5903 45.8241C29.5903 47.5198 30.5532 49.0405 31.4357 50.079C32.3184 49.0404 33.2812 47.5198 33.2812 45.8241C33.2812 44.1284 32.3183 42.6076 31.4357 41.5691C30.5532 42.6076 29.5903 44.1284 29.5903 45.8241Z" fill="#FFC66C"/>
<path d="M47.4731 38.0361C48.5294 38.575 49.5805 38.845 50.6186 38.845C51.3199 38.845 52.0153 38.7217 52.702 38.4749C57.4228 36.7784 59.8394 29.6635 59.94 29.3615C60.0533 29.0209 60.0044 28.6472 59.8073 28.3474C59.6102 28.0476 59.2865 27.8547 58.929 27.8237C55.292 27.51 52.3245 28.1021 50.0918 29.5853C50.2709 28.3962 50.3736 27.2536 50.4221 26.1816C50.441 26.1817 50.4597 26.1818 50.4786 26.1818C52.1047 26.1818 53.5024 25.6533 54.6443 24.6042C58.0384 21.486 57.7331 14.7919 57.7185 14.5084C57.6994 14.139 57.5069 13.8003 57.1994 13.5947C56.8919 13.3892 56.5053 13.341 56.1568 13.4644C52.9071 14.6159 50.9582 16.2272 49.7957 17.8228C49.6395 17.02 49.484 16.3743 49.3651 15.9213C50.2966 14.5639 50.6264 13.1201 50.3452 11.6178C49.5473 7.35291 43.8914 4.3324 43.651 4.20583C43.3323 4.03802 42.9542 4.0263 42.6256 4.17372C42.297 4.32115 42.0544 4.6113 41.9677 4.96087C41.1097 8.42037 41.3845 11.3032 42.7848 13.5289C44.1714 15.7334 46.269 16.6155 47.1985 16.9124C47.4942 18.1229 47.942 20.3386 48.0754 23.0817C45.5061 20.0671 41.5469 18.3004 41.4972 18.2856C41.1799 18.191 40.8374 18.2352 40.5542 18.4069C40.2712 18.5788 40.074 18.8625 40.0116 19.1877C39.2076 23.3761 39.7109 26.7934 41.5074 29.3449C43.3012 31.8924 45.8607 32.7839 46.9236 33.0565C46.8432 33.3245 45.4328 36.982 44.6837 38.2814C43.7224 33.5622 38.7448 29.4258 38.5099 29.233C38.23 29.0032 37.8596 28.916 37.5064 28.9962C37.1533 29.0766 36.8572 29.3157 36.7041 29.6438C34.8447 33.6328 34.4851 37.1936 35.6353 40.227C36.5053 42.5215 38.0551 43.9856 39.1996 44.8088C37.6247 46.1499 35.846 47.3607 33.8664 48.439C34.2183 47.6438 34.4532 46.7619 34.4532 45.8242C34.4532 42.1611 30.8695 39.3477 30.7169 39.2298C30.2947 38.9035 29.7053 38.9035 29.2832 39.2298C29.1306 39.3477 25.5469 42.1609 25.5469 45.8241C25.5469 46.7617 25.7818 47.6436 26.1337 48.4389C24.1541 47.3606 22.3752 46.1498 20.8003 44.8087C21.9449 43.9853 23.4947 42.5214 24.3647 40.2268C25.5149 37.1932 25.1553 33.6326 23.2959 29.6435C23.1428 29.3153 22.8467 29.0762 22.4936 28.996C22.1405 28.9158 21.7701 29.0031 21.4901 29.2328C21.2551 29.4256 16.2776 33.5619 15.3163 38.2812C14.5671 36.9816 13.1568 33.3243 13.0764 33.0563C14.1393 32.7837 16.6988 31.8921 18.4926 29.3447C20.289 26.7933 20.7923 23.3759 19.9883 19.1875C19.9259 18.8623 19.7288 18.5786 19.4458 18.4066C19.1628 18.235 18.82 18.1908 18.5028 18.2854C18.4532 18.3001 14.494 20.0667 11.9245 23.0815C12.0581 20.3381 12.5058 18.1226 12.8016 16.9121C13.7311 16.6152 15.8286 15.7331 17.2153 13.5287C18.6155 11.303 18.8904 8.42014 18.0324 4.96064C17.9456 4.61119 17.7031 4.32091 17.3745 4.17349C17.046 4.02607 16.6678 4.0379 16.3492 4.2056C16.1088 4.33216 10.4529 7.35279 9.65496 11.6176C9.37383 13.1198 9.70348 14.5638 10.6351 15.9211C10.5162 16.374 10.3607 17.0197 10.2045 17.8226C9.04196 16.227 7.09312 14.6157 3.84339 13.4641C3.49487 13.3405 3.10816 13.3889 2.80077 13.5944C2.49327 13.8001 2.30085 14.1388 2.28175 14.5082C2.2671 14.7916 1.96182 21.4858 5.35593 24.604C6.49793 25.6532 7.89527 26.1816 9.52161 26.1816C9.54036 26.1816 9.55922 26.1815 9.57797 26.1813C9.62649 27.2534 9.72915 28.3958 9.90833 29.5851C7.67555 28.1018 4.70859 27.5096 1.07108 27.8236C0.713541 27.8546 0.389868 28.0474 0.192759 28.3473C-0.00446831 28.6472 -0.0533356 29.0208 0.0601021 29.3614C0.160649 29.6633 2.57729 36.7783 7.29809 38.4748C7.98492 38.7217 8.68008 38.8449 9.38145 38.8449C10.4195 38.8449 11.4708 38.5749 12.5271 38.0361C12.8448 38.6753 14.4404 41.2966 14.9176 41.9423C12.2149 41.5559 8.70727 42.0922 4.3589 44.7326C4.05351 44.9181 3.84937 45.2328 3.8046 45.5872C3.75972 45.9415 3.87902 46.2972 4.12863 46.5528C4.38351 46.814 10.1607 52.663 15.8683 52.663C16.1543 52.663 16.4406 52.6482 16.7256 52.6173C19.0306 52.3679 20.944 51.1328 22.4185 48.9447C23.7894 49.8476 25.2661 50.6783 26.8475 51.436C25.5161 51.8753 24.1243 52.2733 22.6725 52.6296C22.0441 52.7838 21.6594 53.4185 21.8138 54.0471C21.945 54.5819 22.4239 54.9398 22.951 54.9398C23.0434 54.9398 23.1374 54.9288 23.2313 54.9058C25.6421 54.3141 27.8991 53.6104 30.0003 52.7963C32.1015 53.6104 34.3586 54.3141 36.7693 54.9058C36.8631 54.9288 36.9571 54.9398 37.0496 54.9398C37.5767 54.9398 38.0555 54.5817 38.1868 54.0471C38.341 53.4185 37.9565 52.7839 37.328 52.6296C35.8763 52.2733 34.4845 51.8752 33.1531 51.436C34.7344 50.6783 36.2112 49.8476 37.5821 48.9447C39.0565 51.1328 40.97 52.3678 43.275 52.6173C43.5604 52.6482 43.8459 52.663 44.1323 52.663C49.8395 52.663 55.6169 46.8141 55.8719 46.5528C56.1215 46.2971 56.2407 45.9415 56.196 45.5872C56.1511 45.2328 55.9469 44.9181 55.6417 44.7326C51.2933 42.0922 47.7857 41.5559 45.0829 41.9423C45.5596 41.2966 47.1554 38.6753 47.4731 38.0361ZM50.374 32.361C52.0191 30.9755 54.1561 30.085 57.0868 30.085C57.1031 30.085 57.1192 30.085 57.1356 30.0851C56.1667 32.247 54.3034 35.4089 51.9095 36.2692C50.8266 36.6585 49.714 36.5513 48.523 35.9404C48.5543 35.7272 49.2686 33.2918 50.374 32.361ZM55.3506 16.3307C55.2111 18.4199 54.6631 21.4068 53.0558 22.8808C52.3599 23.5188 51.513 23.8349 50.4823 23.8374C50.2919 22.2816 50.4587 18.6858 55.3506 16.3307ZM44.7686 12.2807C43.9271 10.943 43.6473 9.21327 43.9317 7.12463C45.5499 8.23756 47.678 10.0958 48.042 12.052C48.1978 12.8894 48.0184 13.6964 47.4941 14.5018C47.4852 14.5065 47.4762 14.5113 47.4675 14.5161C46.7377 14.2117 45.5717 13.5573 44.7686 12.2807ZM47.1015 30.6717C46.2063 30.3824 44.5961 29.6602 43.4238 27.9953C42.2268 26.2953 41.7746 24.0213 42.0735 21.2209C44.1509 22.4501 47.1187 24.7231 47.7671 27.2756C48.0274 28.3006 47.4896 30.0603 47.1015 30.6717ZM37.8144 39.3627C37.0487 37.3134 37.1792 34.8866 38.1999 32.1328C39.8226 33.7446 42.5421 36.8965 42.4994 39.8802C42.4835 40.9922 42.0728 41.9778 41.2495 42.8689C41.2005 42.9204 41.1514 42.972 41.1018 43.0232C41.0544 43.0711 41.0058 43.1187 40.9559 43.1661C40.1039 42.6238 38.5822 41.4181 37.8144 39.3627ZM29.9999 41.7373C30.8378 42.5794 32.1093 44.1353 32.1093 45.8241C32.1093 47.5117 30.8393 49.0669 30.002 49.9088C29.1647 49.0634 27.8907 47.5012 27.8907 45.8241C27.8907 44.1351 29.1626 42.5788 29.9999 41.7373ZM21.8002 32.1327C22.8209 34.8865 22.9514 37.3132 22.1857 39.3626C21.4173 41.4193 19.8944 42.6252 19.0443 43.1662C18.9938 43.1183 17.5635 41.7332 17.5007 39.8801C17.3997 36.8979 20.1776 33.7445 21.8002 32.1327ZM12.233 27.2758C12.7362 24.6906 15.8492 22.4502 17.9265 21.2211C18.2237 24.0054 17.7783 26.2692 16.5967 27.9662C15.4361 29.6329 13.8001 30.3702 12.8958 30.6674C12.5091 30.057 11.9727 28.6131 12.233 27.2758ZM11.9581 12.052C12.322 10.0959 14.4502 8.23756 16.0684 7.12463C16.3507 9.19815 16.077 10.9181 15.2495 12.2518C14.4443 13.5497 13.2614 14.212 12.5263 14.5181C12.5213 14.5153 12.5163 14.5126 12.5112 14.5099C11.9829 13.7018 11.8017 12.8921 11.9581 12.052ZM9.51832 23.8374C8.48754 23.8349 7.64027 23.519 6.9443 22.8808C5.33695 21.4069 4.78898 18.4199 4.64953 16.3307C9.54516 18.6877 9.70852 22.2866 9.51832 23.8374ZM11.4772 35.9404C10.2877 36.5507 9.17578 36.6582 8.09391 36.2703C5.70691 35.4147 3.83952 32.2496 2.86687 30.0851C2.88222 30.085 2.89792 30.085 2.91327 30.085C5.84367 30.085 8.09754 30.848 9.62614 32.361C10.3764 33.1036 10.8372 33.918 11.1151 34.6216C11.1736 34.7953 11.4458 35.7271 11.4772 35.9404ZM20.3092 47.8728C19.259 49.3294 18.0003 50.1209 16.4769 50.2869C12.9284 50.6714 8.87379 47.6335 6.94289 45.9633C10.3527 44.1847 13.3652 43.8611 16.0365 44.6042C18.196 45.2049 20.0609 47.4887 20.3092 47.8728ZM53.0655 45.9677C50.8644 47.8708 46.8507 50.6477 43.5269 50.2871C42.0018 50.1221 40.7422 49.3306 39.691 47.8727C39.9393 47.4885 42.0705 45.2194 43.9637 44.6041C46.6027 43.7464 49.6523 44.1855 53.0655 45.9677Z" fill="black"/>
</svg>
