<svg width="60" height="60" viewBox="0 0 60 60" fill="none" xmlns="http://www.w3.org/2000/svg">
<path d="M46.4062 56.4844V11.0156C46.4062 9.72107 45.3571 8.67188 44.0625 8.67188H15.9375C14.6429 8.67188 13.5938 9.72107 13.5938 11.0156V56.4844C13.5938 57.7789 14.6429 58.8281 15.9375 58.8281H44.0625C45.3571 58.8281 46.4062 57.7789 46.4062 56.4844Z" fill="#FFC66C"/>
<path d="M43.5938 51.3281H15.9375C14.6429 51.3281 13.5938 50.2789 13.5938 48.9844V3.51562C13.5938 2.22107 14.6429 1.17188 15.9375 1.17188H51.5625C52.8571 1.17188 53.9062 2.22107 53.9062 3.51562V41.0156L43.5938 51.3281Z" fill="white"/>
<path d="M41.2596 27.0901H47.5489V45.3713H41.2596V27.0901Z" fill="#FF8C8C"/>
<path d="M53.9062 41.0156H46.8164C45.0366 41.0156 43.5938 42.4585 43.5938 44.2383V51.3281L53.9062 41.0156Z" fill="#FEDA9B"/>
<path d="M28.4472 9.1228C26.1914 10.0383 24.5997 12.2498 24.5997 14.8343C24.5997 17.4184 26.1914 19.6299 28.4472 20.5454C30.7036 19.6299 32.2952 17.4184 32.2952 14.8343C32.2952 12.2498 30.7036 10.0383 28.4472 9.1228Z" fill="#FFC66C"/>
<path d="M22.8424 50.4996C22.6232 50.7175 22.4987 51.0201 22.4987 51.3281C22.4987 51.6362 22.6232 51.9388 22.8424 52.1567C23.0603 52.3746 23.3615 52.5 23.6705 52.5C23.9791 52.5 24.2812 52.3746 24.4991 52.1567C24.7174 51.9388 24.8424 51.6362 24.8424 51.3281C24.8424 51.0201 24.7174 50.7175 24.4991 50.4996C24.2812 50.2817 23.9791 50.1562 23.6705 50.1562C23.3615 50.1562 23.0603 50.2817 22.8424 50.4996Z" fill="black"/>
<path d="M51.5625 0H15.9375C13.9989 0 12.4219 1.577 12.4219 3.51562V7.5H8.4375C6.49887 7.5 4.92188 9.077 4.92188 11.0156V56.4844C4.92188 58.423 6.49887 60 8.4375 60H44.0625C46.0011 60 47.5781 58.423 47.5781 56.4844V52.9102C47.5781 52.2629 47.0535 51.7383 46.4062 51.7383C45.759 51.7383 45.2344 52.2629 45.2344 52.9102V56.4844C45.2344 57.1307 44.7089 57.6562 44.0625 57.6562H8.4375C7.79114 57.6562 7.26562 57.1307 7.26562 56.4844V11.0156C7.26562 10.3693 7.79114 9.84375 8.4375 9.84375H12.4219V48.9844C12.4219 50.923 13.9989 52.5 15.9375 52.5H18.0858C18.7331 52.5 19.2577 51.9754 19.2577 51.3281C19.2577 50.6808 18.7331 50.1562 18.0858 50.1562H15.9375C15.2911 50.1562 14.7656 49.6307 14.7656 48.9844V3.51562C14.7656 2.86926 15.2911 2.34375 15.9375 2.34375H51.5625C52.2089 2.34375 52.7344 2.86926 52.7344 3.51562V39.8438H48.7207V27.09C48.7207 26.4427 48.1961 25.9181 47.5488 25.9181H36.0645C35.4172 25.9181 34.8926 26.4427 34.8926 27.09V45.3712C34.8926 46.0185 35.4172 46.5431 36.0645 46.5431H42.4219V50.1562H28.5938C27.9465 50.1562 27.4219 50.6808 27.4219 51.3281C27.4219 51.9754 27.9465 52.5 28.5938 52.5H43.5924H43.5933C43.8986 52.5 44.198 52.381 44.4223 52.1567L54.7348 41.8442C54.9586 41.6203 55.0749 41.321 55.0754 41.0161C55.0763 41.0161 55.0772 41.0156 55.0781 41.0156V3.51562C55.0781 1.577 53.5011 0 51.5625 0V0ZM42.4228 44.1994H37.2363V28.2619H46.377V39.8657C44.1719 40.0859 42.4425 41.9421 42.4228 44.1994ZM44.7656 48.4991V44.2383C44.7656 43.1076 45.6857 42.1875 46.8164 42.1875H51.0773L44.7656 48.4991Z" fill="black"/>
<path d="M26.1328 22.1681C30.1767 22.1681 33.4671 18.8782 33.4671 14.8343C33.4671 10.7899 30.1767 7.5 26.1328 7.5C22.0889 7.5 18.7985 10.7899 18.7985 14.8343C18.7985 18.8782 22.0889 22.1681 26.1328 22.1681ZM26.1328 9.84375C28.8844 9.84375 31.1234 12.0822 31.1234 14.8343C31.1234 17.5859 28.8844 19.8244 26.1328 19.8244C23.3812 19.8244 21.1423 17.5859 21.1423 14.8343C21.1423 12.0822 23.3812 9.84375 26.1328 9.84375Z" fill="black"/>
<path d="M19.9512 28.262H30.1465C30.7938 28.262 31.3184 27.7374 31.3184 27.0901C31.3184 26.4428 30.7938 25.9182 30.1465 25.9182H19.9512C19.3039 25.9182 18.7793 26.4428 18.7793 27.0901C18.7793 27.7374 19.3039 28.262 19.9512 28.262Z" fill="black"/>
<path d="M37.3535 16.0745H47.5488C48.1961 16.0745 48.7207 15.5499 48.7207 14.9026C48.7207 14.2553 48.1961 13.7307 47.5488 13.7307H37.3535C36.7062 13.7307 36.1816 14.2553 36.1816 14.9026C36.1816 15.5499 36.7062 16.0745 37.3535 16.0745Z" fill="black"/>
<path d="M47.5489 9.98071C48.1961 9.98071 48.7207 9.45612 48.7207 8.80884C48.7207 8.16156 48.1961 7.63696 47.5489 7.63696H41.7284C41.0811 7.63696 40.5565 8.16156 40.5565 8.80884C40.5565 9.45612 41.0811 9.98071 41.7284 9.98071H47.5489Z" fill="black"/>
<path d="M37.3535 9.98096C37.6616 9.98096 37.9642 9.85553 38.1821 9.63718C38.4 9.41928 38.5254 9.11716 38.5254 8.80908C38.5254 8.50055 38.4 8.19843 38.1821 7.98053C37.9642 7.76218 37.6616 7.63721 37.3535 7.63721C37.0454 7.63721 36.7429 7.76218 36.525 7.98053C36.3071 8.19843 36.1816 8.49963 36.1816 8.80908C36.1816 9.11716 36.3071 9.41928 36.525 9.63718C36.7429 9.85553 37.0454 9.98096 37.3535 9.98096Z" fill="black"/>
<path d="M37.3535 22.1682H47.5488C48.1961 22.1682 48.7207 21.6436 48.7207 20.9963C48.7207 20.3491 48.1961 19.8245 47.5488 19.8245H37.3535C36.7062 19.8245 36.1816 20.3491 36.1816 20.9963C36.1816 21.6436 36.7062 22.1682 37.3535 22.1682Z" fill="black"/>
<path d="M19.9512 34.3557H30.1465C30.7938 34.3557 31.3184 33.8311 31.3184 33.1838C31.3184 32.5366 30.7938 32.012 30.1465 32.012H19.9512C19.3039 32.012 18.7793 32.5366 18.7793 33.1838C18.7793 33.8311 19.3039 34.3557 19.9512 34.3557Z" fill="black"/>
<path d="M19.9512 40.4495H30.1465C30.7938 40.4495 31.3184 39.9249 31.3184 39.2776C31.3184 38.6303 30.7938 38.1057 30.1465 38.1057H19.9512C19.3039 38.1057 18.7793 38.6303 18.7793 39.2776C18.7793 39.9249 19.3039 40.4495 19.9512 40.4495Z" fill="black"/>
<path d="M31.3184 45.3713C31.3184 44.7241 30.7938 44.1995 30.1465 44.1995H19.9512C19.3039 44.1995 18.7793 44.7241 18.7793 45.3713C18.7793 46.0186 19.3039 46.5432 19.9512 46.5432H30.1465C30.7938 46.5432 31.3184 46.0186 31.3184 45.3713Z" fill="black"/>
</svg>
