<svg width="60" height="60" viewBox="0 0 60 60" fill="none" xmlns="http://www.w3.org/2000/svg">
<g clip-path="url(#clip0_21_310)">
<path d="M38.2487 6.50579C37.9382 5.96789 37.4268 5.5752 36.8269 5.41406L27.3784 2.87671C27.2134 3.15116 27.0826 3.45234 26.9954 3.77706L22.8694 19.1415C22.708 19.7423 22.7921 20.3825 23.1031 20.9212L42.5117 54.5377L57.0683 46.1335C58.7498 45.1627 59.3259 43.0125 58.3552 41.331L38.2487 6.50579Z" fill="#FFC66C"/>
<path d="M23.9577 13.3946C25.511 13.3946 26.7702 12.1353 26.7702 10.582C26.7702 9.02874 25.511 7.76953 23.9577 7.76953C22.4044 7.76953 21.1452 9.02874 21.1452 10.582C21.1452 12.1353 22.4044 13.3946 23.9577 13.3946Z" fill="white"/>
<path d="M34.6985 57.0443C34.1713 56.7457 33.714 56.3077 33.3893 55.745L15.2259 24.2849V55.3128C15.2259 57.2545 16.7998 58.8284 18.7415 58.8284H31.6392C32.9511 58.8284 34.0944 58.1092 34.6985 57.0443Z" fill="#FF8C8C"/>
<path d="M47.0399 41.8301C48.6644 41.8301 49.9814 40.5132 49.9814 38.8887C49.9814 37.2642 48.6644 35.9473 47.0399 35.9473C45.4154 35.9473 44.0985 37.2642 44.0985 38.8887C44.0985 40.5132 45.4154 41.8301 47.0399 41.8301Z" fill="#FFC66C"/>
<path d="M31.3427 36.7898C32.9672 36.7898 34.2842 35.4729 34.2842 33.8484C34.2842 32.2239 32.9672 30.907 31.3427 30.907C29.7182 30.907 28.4013 32.2239 28.4013 33.8484C28.4013 35.4729 29.7182 36.7898 31.3427 36.7898Z" fill="#FFC66C"/>
<path d="M59.3701 40.7445L39.2639 5.91931C38.7948 5.10673 38.0373 4.52524 37.1312 4.28172L21.7872 0.161276C21.2699 0.0224083 20.7427 -0.0261075 20.2238 0.0120957C20.1785 0.00682227 20.1325 0.00330663 20.0858 0.00330663H4.28965C2.38652 0.00330663 0.736864 1.22698 0.184674 3.0482C-0.172749 4.22735 -0.00575596 5.50423 0.643114 6.55165C1.29198 7.59908 2.36085 8.31732 3.57562 8.5224L9.31279 9.49084L6.18622 12.6139C5.5213 13.2781 5.1552 14.1615 5.1552 15.1012V55.3122C5.1552 57.8969 7.25802 59.9997 9.84272 59.9997H31.6396C32.9655 59.9997 34.2148 59.4328 35.0928 58.4765C35.1355 58.4891 35.1778 58.5026 35.221 58.5142C35.6249 58.6224 36.0347 58.6759 36.4418 58.6759C37.254 58.6759 38.0557 58.4629 38.7779 58.0459L57.6546 47.1476C58.7389 46.5215 59.5146 45.5107 59.8386 44.3013C60.1625 43.0919 59.9961 41.8289 59.3701 40.7445ZM3.96586 6.21146C3.40676 6.117 2.93425 5.79954 2.63566 5.31743C2.33695 4.83532 2.26312 4.27094 2.42765 3.72824C2.67808 2.90207 3.42644 2.34707 4.28977 2.34707H16.4647L11.3483 7.45763L3.96586 6.21146ZM15.0877 7.03517L14.817 8.04322L14.1852 7.93658L15.0877 7.03517ZM13.1239 57.6562V47.3453C13.1239 46.698 12.5992 46.1734 11.952 46.1734C11.3048 46.1734 10.7801 46.698 10.7801 47.3453V57.6562H9.8426C8.55025 57.6562 7.49884 56.6047 7.49884 55.3124V15.1012C7.49884 14.788 7.62095 14.4935 7.84255 14.2721L12.1498 9.96968L14.2064 10.3169L11.9185 18.8367C11.6747 19.7443 11.7992 20.6925 12.2692 21.5064L32.3748 56.3302C32.5587 56.6488 32.7766 56.9399 33.0224 57.2015C32.6266 57.4909 32.1443 57.6559 31.6397 57.6559H13.1239V57.6562ZM57.5745 43.6947C57.4126 44.2994 57.0247 44.8049 56.4826 45.1179L37.6059 56.0162C37.0637 56.3292 36.4321 56.4122 35.8275 56.2504C35.2228 56.0883 34.7174 55.7005 34.4044 55.1583L14.2988 20.3347C14.1422 20.0634 14.1006 19.7474 14.1818 19.4449L16.5278 10.709L20.0377 11.3015C20.1192 11.7434 20.2765 12.1729 20.5079 12.5736C21.04 13.4953 21.8992 14.1546 22.9272 14.43C23.2705 14.522 23.6189 14.5674 23.9649 14.5674C24.6554 14.5674 25.3367 14.3864 25.9507 14.0319C26.8723 13.4997 27.5316 12.6405 27.807 11.6125C28.0825 10.5846 27.9412 9.51077 27.4091 8.58908C26.8769 7.6674 26.0177 7.0081 24.9897 6.73271C23.9618 6.4572 22.888 6.59865 21.9663 7.13068C21.2238 7.55935 20.6519 8.2006 20.3135 8.971L17.1385 8.4351L18.3079 4.08051C18.4703 3.47594 18.8583 2.97074 19.4007 2.65797C19.7616 2.44984 20.1619 2.34355 20.5676 2.34355C20.7717 2.34355 20.977 2.37039 21.1792 2.42476L30.0664 4.81141C30.0745 4.827 30.0815 4.84294 30.0904 4.85829L35.775 14.7041C35.992 15.0801 36.3859 15.2901 36.7909 15.2901C36.9897 15.2901 37.1912 15.2395 37.3758 15.133C37.9363 14.8094 38.1284 14.0927 37.8047 13.5322L33.2658 5.67063L36.5231 6.54532C36.8252 6.62642 37.0777 6.82036 37.2341 7.09119L57.3404 41.9163C57.6534 42.4585 57.7365 43.09 57.5745 43.6947ZM22.8135 11.7534C23.375 11.7534 23.871 11.3485 23.9676 10.7764C24.0753 10.1382 23.6453 9.5335 23.0071 9.42581L22.8267 9.39534C22.9202 9.30639 23.0235 9.2267 23.1382 9.16049C23.3909 9.01447 23.6715 8.94006 23.9558 8.94006C24.0983 8.94006 24.2417 8.95881 24.383 8.99666C24.8063 9.1101 25.1601 9.38151 25.3793 9.76108C25.5984 10.1407 25.6565 10.5827 25.5431 11.0061C25.4296 11.4294 25.1582 11.7832 24.7787 12.0023C24.3992 12.2216 23.9571 12.2797 23.5337 12.1661C23.2566 12.0919 23.0104 11.949 22.8112 11.7534C22.812 11.7533 22.8127 11.7534 22.8135 11.7534Z" fill="black"/>
<path d="M44.9833 35.3266C43.0193 36.4605 42.3441 38.9808 43.4779 40.9448C44.2389 42.2628 45.6241 43.0004 47.0466 43.0004C47.7439 43.0004 48.4502 42.8231 49.0961 42.4502C50.0475 41.9009 50.7281 41.014 51.0124 39.9529C51.2967 38.8918 51.1508 37.7834 50.6015 36.8321C49.4676 34.868 46.9472 34.1927 44.9833 35.3266ZM48.7484 39.3462C48.6262 39.8027 48.3335 40.1841 47.9242 40.4204C47.0794 40.9082 45.9954 40.6176 45.5076 39.7729C45.0199 38.9282 45.3104 37.8441 46.1551 37.3563C46.4276 37.1989 46.7301 37.1185 47.0367 37.1185C47.1903 37.1185 47.345 37.1386 47.4974 37.1795C47.9539 37.3018 48.3353 37.5946 48.5717 38.0038C48.8081 38.4131 48.8708 38.8898 48.7484 39.3462Z" fill="black"/>
<path d="M32.4076 29.8757C31.3466 29.5915 30.2381 29.7374 29.2867 30.2866C28.3353 30.8358 27.6547 31.7227 27.3704 32.7838C27.0861 33.845 27.232 34.9533 27.7813 35.9047C28.5422 37.2227 29.9275 37.9603 31.35 37.9603C32.0473 37.9603 32.7534 37.7831 33.3995 37.4101C34.351 36.8607 35.0315 35.9739 35.3158 34.9127C35.6001 33.8514 35.4542 32.7432 34.9049 31.7918C34.3556 30.8405 33.4688 30.16 32.4076 29.8757ZM33.0519 34.3062C32.9297 34.7627 32.6368 35.1441 32.2277 35.3804C31.3831 35.8682 30.2989 35.5777 29.8111 34.7329C29.5748 34.3237 29.512 33.847 29.6344 33.3905C29.7566 32.9341 30.0493 32.5526 30.4586 32.3164C30.7311 32.159 31.0337 32.0786 31.3403 32.0786C31.4939 32.0786 31.6486 32.0988 31.8011 32.1397C32.2575 32.2619 32.639 32.5547 32.8752 32.9638C33.1115 33.3731 33.1743 33.8498 33.0519 34.3062Z" fill="black"/>
<path d="M38.7283 27.7014C38.081 27.7014 37.5564 28.2261 37.5564 28.8733V46.2036C37.5564 46.8509 38.081 47.3755 38.7283 47.3755C39.3755 47.3755 39.9002 46.8509 39.9002 46.2036V28.8732C39.9002 28.2259 39.3755 27.7014 38.7283 27.7014Z" fill="black"/>
<path d="M11.9519 40.186C11.6437 40.186 11.3413 40.3114 11.1234 40.5294C10.9054 40.7474 10.78 41.0497 10.78 41.3591C10.78 41.6661 10.9054 41.9685 11.1234 42.1876C11.3413 42.4056 11.6437 42.5298 11.9519 42.5298C12.2601 42.5298 12.5624 42.4056 12.7804 42.1876C12.9984 41.9685 13.1238 41.6673 13.1238 41.3591C13.1238 41.0497 12.9984 40.7474 12.7804 40.5294C12.5624 40.3114 12.2601 40.186 11.9519 40.186Z" fill="black"/>
<path d="M39.7838 18.1313C39.4744 18.1313 39.1732 18.2567 38.9541 18.4747C38.7361 18.6927 38.6119 18.995 38.6119 19.3032C38.6119 19.6126 38.7361 19.9138 38.9541 20.1317C39.1732 20.3509 39.4756 20.4751 39.7838 20.4751C40.092 20.4751 40.3932 20.3509 40.6123 20.1317C40.8303 19.9138 40.9557 19.6114 40.9557 19.3032C40.9557 18.995 40.8303 18.6938 40.6123 18.4747C40.3943 18.2567 40.092 18.1313 39.7838 18.1313Z" fill="black"/>
</g>
<defs>
<clipPath id="clip0_21_310">
<rect width="60" height="60" fill="white"/>
</clipPath>
</defs>
</svg>
