<svg width="60" height="60" viewBox="0 0 60 60" fill="none" xmlns="http://www.w3.org/2000/svg">
<g clip-path="url(#clip0_21_204)">
<path d="M27.6562 30H8.05984C7.1228 30.3067 6.44531 31.187 6.44531 32.2266V56.3672C6.44531 57.6617 7.49451 58.7109 8.78906 58.7109H28.3855C29.3225 58.4042 30 57.524 30 56.4844V32.3438C30 31.0492 28.9508 30 27.6562 30Z" fill="#FFC66C"/>
<path d="M11.0339 30H20.1379V42.1381H11.0339V30Z" fill="white"/>
<path d="M24.9284 52.4136H21.3913C20.7445 52.4136 20.2194 51.889 20.2194 51.2417C20.2194 50.5949 20.7445 50.0698 21.3913 50.0698H24.9284C25.5757 50.0698 26.1003 50.5949 26.1003 51.2417C26.1003 51.889 25.5757 52.4136 24.9284 52.4136Z" fill="black"/>
<path d="M16.9606 52.4136C16.6526 52.4136 16.35 52.2891 16.1321 52.0698C15.9142 51.8519 15.7888 51.5498 15.7888 51.2417C15.7888 50.9332 15.9142 50.631 16.1321 50.4131C16.35 50.1953 16.6526 50.0698 16.9606 50.0698C17.2701 50.0698 17.5713 50.1948 17.7892 50.4131C18.0085 50.631 18.1325 50.9332 18.1325 51.2417C18.1325 51.5498 18.0085 51.8519 17.7892 52.0698C17.5713 52.2891 17.2701 52.4136 16.9606 52.4136Z" fill="black"/>
<path d="M30 27.6562V3.51562C30 2.22107 28.9508 1.17188 27.6562 1.17188H8.78906C7.49451 1.17188 6.44531 2.22107 6.44531 3.51562V27.6562C6.44531 28.9508 7.49451 30 8.78906 30H27.6562C28.9508 30 30 28.9508 30 27.6562Z" fill="#FFC66C"/>
<path d="M11.0339 1.17188H20.1379V13.3099H11.0339V1.17188Z" fill="white"/>
<path d="M24.9284 23.5854H21.3913C20.7445 23.5854 20.2194 23.0609 20.2194 22.4136C20.2194 21.7668 20.7445 21.2417 21.3913 21.2417H24.9284C25.5757 21.2417 26.1003 21.7668 26.1003 22.4136C26.1003 23.0609 25.5757 23.5854 24.9284 23.5854Z" fill="black"/>
<path d="M16.9606 23.5854C16.6526 23.5854 16.3513 23.4609 16.1321 23.2417C15.9142 23.0238 15.7888 22.7216 15.7888 22.4136C15.7888 22.105 15.9142 21.8029 16.1321 21.585C16.35 21.3671 16.6526 21.2417 16.9606 21.2417C17.2701 21.2417 17.5713 21.3667 17.7892 21.585C18.0085 21.8038 18.1325 22.105 18.1325 22.4136C18.1325 22.7216 18.0085 23.0238 17.7892 23.2417C17.5713 23.4609 17.2687 23.5854 16.9606 23.5854Z" fill="black"/>
<path d="M56.4844 11.9531H36.5044C35.8369 12.366 35.3906 13.1026 35.3906 13.9453V56.1328C35.3906 57.4274 36.4398 58.4766 37.7344 58.4766H57.7144C58.3818 58.0637 58.8281 57.3271 58.8281 56.4844V14.2969C58.8281 13.0023 57.7789 11.9531 56.4844 11.9531Z" fill="#FFC66C"/>
<path d="M39.8621 11.9531H48.9661V24.0912H39.8621V11.9531Z" fill="white"/>
<path d="M56.4844 10.7812H32.3438C31.9327 10.7812 31.5385 10.8527 31.1719 10.9827V3.51562C31.1719 1.577 29.5949 0 27.6562 0H3.51562C1.577 0 0 1.577 0 3.51562V27.6562C0 28.5562 0.340118 29.3774 0.898132 30C0.340118 30.6226 0 31.4438 0 32.3438V56.4844C0 58.423 1.577 60 3.51562 60H27.6562C28.5562 60 29.3774 59.6599 30 59.1019C30.6226 59.6599 31.4438 60 32.3438 60H56.4844C58.423 60 60 58.423 60 56.4844V14.2969C60 12.3582 58.423 10.7812 56.4844 10.7812ZM18.9661 2.34375V12.1381H12.2058V2.34375H18.9661ZM28.8281 56.4844C28.8281 57.1307 28.3026 57.6562 27.6562 57.6562H3.51562C2.86926 57.6562 2.34375 57.1307 2.34375 56.4844V32.3438C2.34375 31.6974 2.86926 31.1719 3.51562 31.1719H9.86206V42.1381C9.86206 42.7853 10.3871 43.3099 11.0339 43.3099H20.1379C20.7852 43.3099 21.3098 42.7853 21.3098 42.1381V31.1719H27.6562C28.3026 31.1719 28.8281 31.6974 28.8281 32.3438V56.4844ZM12.2058 31.1719H18.9661V40.9662H12.2058V31.1719ZM28.8281 14.2969V27.6562C28.8281 28.3026 28.3026 28.8281 27.6562 28.8281H3.51562C2.86926 28.8281 2.34375 28.3026 2.34375 27.6562V3.51562C2.34375 2.86926 2.86926 2.34375 3.51562 2.34375H9.86206V13.3099C9.86206 13.9572 10.3871 14.4818 11.0339 14.4818H20.1379C20.7852 14.4818 21.3098 13.9572 21.3098 13.3099V2.34375H27.6562C28.3026 2.34375 28.8281 2.86926 28.8281 3.51562V14.2969ZM47.7942 13.125V22.9193H41.0339V13.125H47.7942ZM57.6562 56.4844C57.6562 57.1307 57.1307 57.6562 56.4844 57.6562H32.3438C31.6974 57.6562 31.1719 57.1307 31.1719 56.4844V14.2969C31.1719 13.6505 31.6974 13.125 32.3438 13.125H38.6902V24.0912C38.6902 24.7385 39.2152 25.2631 39.8621 25.2631H48.9661C49.6133 25.2631 50.1379 24.7385 50.1379 24.0912V13.125H56.4844C57.1307 13.125 57.6562 13.6505 57.6562 14.2969V56.4844Z" fill="black"/>
<path d="M53.7566 52.4136H50.2194C49.5726 52.4136 49.0475 51.889 49.0475 51.2417C49.0475 50.5949 49.5726 50.0698 50.2194 50.0698H53.7566C54.4038 50.0698 54.9284 50.5949 54.9284 51.2417C54.9284 51.889 54.4038 52.4136 53.7566 52.4136Z" fill="black"/>
</g>
<defs>
<clipPath id="clip0_21_204">
<rect width="60" height="60" fill="white"/>
</clipPath>
</defs>
</svg>
