<svg width="60" height="60" viewBox="0 0 60 60" fill="none" xmlns="http://www.w3.org/2000/svg">
<g clip-path="url(#clip0_21_298)">
<path d="M4.92188 20.8594H8.67188V58.5938H4.92188V20.8594Z" fill="#FF8C8C"/>
<path d="M54.9609 20.8594H58.8281V58.5938H54.9609V20.8594Z" fill="#FF8C8C"/>
<path d="M6.09375 19.8046V20.8593H58.8281V17.1093L34.8985 3.87988L6.09375 19.8046Z" fill="#FF8C8C"/>
<path d="M19.043 44.8828H30V58.8281H19.043V44.8828Z" fill="#FFC66C"/>
<path d="M33.4721 44.7656H44.0776V58.8281H33.4721V44.7656Z" fill="#FFC66C"/>
<path d="M26.2065 30.7617H37.0464V44.7656H26.2065V30.7617Z" fill="#FFC66C"/>
<path d="M8.67188 29.9541C8.3638 29.9541 8.06122 30.0795 7.84332 30.2974C7.62543 30.5153 7.5 30.8179 7.5 31.126C7.5 31.4354 7.62543 31.7366 7.84332 31.9545C8.06122 32.1738 8.3638 32.2979 8.67188 32.2979C8.97995 32.2979 9.28253 32.1738 9.50043 31.9545C9.71832 31.7366 9.84375 31.4354 9.84375 31.126C9.84375 30.8179 9.71832 30.5153 9.50043 30.2974C9.28253 30.0795 8.97995 29.9541 8.67188 29.9541Z" fill="black"/>
<path d="M59.3953 16.0831L48.3728 9.98937C47.8061 9.6758 47.0934 9.88134 46.7802 10.4476C46.4671 11.0143 46.6722 11.727 47.2385 12.0402L57.6562 17.7997V19.6866H2.34375V17.7997L30 2.50997L39.7765 7.91479C40.3427 8.22836 41.0555 8.02282 41.369 7.45611C41.6821 6.88985 41.4766 6.17666 40.9103 5.86355L30.5672 0.145622C30.2142 -0.0498428 29.7858 -0.0498428 29.4328 0.145622L0.604706 16.0831C0.231628 16.2891 0 16.6819 0 17.1085V58.8273C0 59.4745 0.524597 59.9991 1.17188 59.9991H8.67188C9.31915 59.9991 9.84375 59.4745 9.84375 58.8273V35.507C9.84375 34.8597 9.31915 34.3351 8.67188 34.3351C8.0246 34.3351 7.5 34.8597 7.5 35.507V57.6554H2.34375V22.0304H7.5V26.7179C7.5 27.3652 8.0246 27.8898 8.67188 27.8898C9.31915 27.8898 9.84375 27.3652 9.84375 26.7179V22.0304H50.1562V58.8273C50.1562 59.4745 50.6808 59.9991 51.3281 59.9991H58.8281C59.4754 59.9991 60 59.4745 60 58.8273V17.1085C60 16.6819 59.7684 16.2891 59.3953 16.0831ZM57.6562 57.6554H52.5V22.0304H57.6562V57.6554Z" fill="black"/>
<path d="M44.0158 10.0923C44.3239 10.0923 44.626 9.96686 44.8444 9.74896C45.0623 9.53061 45.1877 9.22849 45.1877 8.92041C45.1877 8.61188 45.0623 8.30975 44.8444 8.09186C44.626 7.87396 44.3239 7.74854 44.0158 7.74854C43.7073 7.74854 43.4052 7.87396 43.1873 8.09186C42.9694 8.30975 42.8439 8.61188 42.8439 8.92041C42.8439 9.22849 42.9694 9.53061 43.1873 9.74896C43.4052 9.96686 43.7073 10.0923 44.0158 10.0923Z" fill="black"/>
<path d="M44.0776 43.5938H38.2182V30.7031C38.2182 30.0558 37.6932 29.5312 37.0464 29.5312H22.9839C22.3366 29.5312 21.812 30.0558 21.812 30.7031V43.5938H15.9375C15.2902 43.5938 14.7656 44.1183 14.7656 44.7656V58.8281C14.7656 59.4754 15.2902 60 15.9375 60H30C30.0023 60 30.005 59.9995 30.0073 59.9995C30.0101 59.9995 30.0124 60 30.0146 60H44.0771C44.7244 60 45.249 59.4754 45.249 58.8281V44.7656C45.2495 44.1183 44.7244 43.5938 44.0776 43.5938ZM17.1094 47.5951L21.3116 51.7969L17.1094 55.9991V47.5951ZM41.2482 45.9375L37.0464 50.1393L32.8441 45.9375H41.2482ZM30.0151 43.5938H25.8128L30.0151 39.3919L34.2169 43.5938H30.0151ZM28.8281 55.9991L24.6263 51.7969L28.8281 47.5951V55.9991ZM31.187 47.5951L35.3888 51.7969L31.187 55.9987V47.5951ZM35.8745 41.9366L31.6722 37.7344L35.8745 33.5326V41.9366ZM30.0151 36.0773L25.8128 31.875H34.2169L30.0151 36.0773ZM28.3575 37.7344L24.1557 41.9362V33.5321L28.3575 37.7344ZM22.9839 45.9375H27.1706L22.9688 50.1398L18.7669 45.9375H22.9839ZM22.9688 53.4544L27.171 57.6562H18.7669L22.9688 53.4544ZM37.0464 53.4544L41.2482 57.6562H32.8441L37.0464 53.4544ZM38.7035 51.7969L42.9057 47.5951V55.9991L38.7035 51.7969Z" fill="black"/>
</g>
<defs>
<clipPath id="clip0_21_298">
<rect width="60" height="60" fill="white"/>
</clipPath>
</defs>
</svg>
