<svg width="170" height="107" viewBox="0 0 170 107" fill="none" xmlns="http://www.w3.org/2000/svg">
<path d="M166.561 49.5077C166.561 69.6435 129.962 85.9669 84.8157 85.9669C39.669 85.9669 3.07038 69.6435 3.07038 49.5077C3.07038 47.1458 3.07037 36.4591 3.07037 36.4591C10.3084 19.6265 44.9646 13.0485 84.8157 13.0485C124.667 13.0485 159.323 18.4752 166.561 35.3078C166.561 35.3078 166.561 47.1458 166.561 49.5077Z" fill="#F8D77A"/>
<path d="M166.561 49.5077C166.561 69.6435 129.962 85.9669 84.8157 85.9669C39.669 85.9669 3.07038 69.6435 3.07038 49.5077C3.07038 47.1458 3.07037 36.4591 3.07037 36.4591C10.3084 19.6265 44.9646 13.0485 84.8157 13.0485C124.667 13.0485 159.323 18.4752 166.561 35.3078C166.561 35.3078 166.561 47.1458 166.561 49.5077Z" fill="url(#paint0_linear_8_718)"/>
<ellipse cx="84.8157" cy="37.9944" rx="81.7454" ry="36.4592" fill="#F8D77A"/>
<ellipse cx="84.8157" cy="36.4592" rx="81.7454" ry="36.4592" fill="#F8D77A"/>
<ellipse cx="84.8157" cy="36.4592" rx="81.7454" ry="36.4592" fill="url(#paint1_linear_8_718)"/>
<path d="M122.239 70.143L139.052 62.4561L121.415 68.082L132.81 33.7728L116.177 65.8311L109.426 50.8014C109.362 50.8887 109.303 50.9733 109.244 51.0529L114.069 66.537L81.2328 55.1414L111.721 71.7702L95.177 79.3312L112.517 73.9286L101.108 106.817L117.773 76.1076L125.375 92.9469L119.878 75.371L152.745 86.8898" fill="#F8D77A"/>
<path d="M116.982 73.1105L110.8 84.8987L115.43 72.4817L102.777 76.4239L114.88 70.893L103.236 64.8718L115.517 69.4506L111.618 56.9412L116.998 68.9116L123.173 57.1234L118.548 69.5378L131.045 65.552L119.087 71.0187L130.862 77.1092L118.463 72.5715L122.347 84.9885" fill="#E5E5E5"/>
<path d="M60.5355 32.1177C58.6196 35.7936 57.1324 37.9374 55.1026 39.9672C52.4011 42.6717 49.3339 44.0988 46.2336 44.0988C43.6581 44.0988 43.2713 42.1649 43.2713 41.0106C43.2713 37.7934 48.8331 32.8493 54.5479 32.1956C55.6213 32.0427 56.9555 31.8538 58.2747 31.8538C59.1502 31.8538 59.9118 31.9408 60.5355 32.1177ZM37.0798 25.2096C37.3287 25.2096 37.5506 24.9847 37.5506 24.7359V24.6459L37.4876 24.583C37.4636 24.559 37.3827 24.463 37.2627 24.3191C36.3183 23.2098 35.1879 21.9235 34.4563 21.3388C36.726 20.2504 38.8608 19.7437 41.1485 19.7437C42.4168 19.7437 43.2053 20.0046 43.4902 20.5233C43.9549 21.3748 43.0165 22.847 42.6147 23.4766C41.9071 24.589 40.4199 25.6414 39.8593 26.0401C39.7213 26.1391 39.6284 26.208 39.6344 26.208C37.8624 27.3444 32.9692 29.737 29.6771 30.1148C28.6277 30.2647 27.3414 30.3547 26.238 30.3547C25.3295 30.3547 24.556 30.2977 23.9653 30.1838C25.9952 27.2215 29.773 23.9024 33.5029 21.8186C34.0606 22.2593 35.1909 23.2847 35.7696 23.8574C35.9795 24.1092 36.1444 24.3311 36.2853 24.517C36.6061 24.9488 36.804 25.2096 37.0798 25.2096ZM17.2522 24.2292C17.2522 21.2699 20.3614 18.6704 25.0687 18.5144C25.2156 18.5114 25.3655 18.5084 25.5124 18.5084C27.9291 18.5084 30.8524 19.5249 32.8852 21.048C30.5616 22.0134 27.6772 23.7854 25.0687 25.8902C23.5456 27.1195 22.1094 28.4628 20.9401 29.824C18.7783 28.8076 17.2522 27.9171 17.2522 24.2292ZM66.8588 37.4516C66.8588 40.0032 65.6805 40.9626 65.1138 41.4274C65.0209 41.5023 64.9459 41.5653 64.892 41.6193C64.76 41.7512 64.7121 41.982 64.787 42.1589C64.871 42.3628 65.0929 42.4528 65.3657 42.3628L65.4347 42.3269C66.1842 41.7272 67.9322 40.0152 67.9322 37.0709C67.9322 33.7667 65.5366 31.8928 64.5592 31.2662C65.9414 28.3009 66.4751 25.7523 66.1513 23.6865C65.6775 20.4993 63.6057 18.6704 60.4695 18.6704C56.3948 18.6704 52.4461 21.2339 46.8363 27.5123C45.4571 28.9845 44.2937 30.6305 43.0614 32.3725L42.9355 32.5494C42.9655 32.4805 42.9955 32.4085 43.0285 32.3366C43.3912 31.488 43.802 30.5256 44.2637 29.5451L44.7735 28.5977C46.0567 26.211 46.6984 25.0147 48.9501 22.1933C49.8735 20.9251 51.1058 19.8787 52.0053 19.1111L52.2542 18.8952C52.527 18.6194 52.6799 18.4665 52.6799 18.2536C52.6799 17.9987 52.6799 17.6539 52.3321 17.6539C52.0233 17.6539 51.6515 17.8848 50.806 18.5894C48.8991 20.0166 46.8003 21.8305 45.1902 23.4376C41.9521 26.6788 40.4799 28.7056 37.5416 32.7413C30.9873 41.4034 28.2109 44.0988 23.6085 44.0988C20.8531 44.0988 20.7751 38.8998 20.7751 38.8488C20.7751 36.6361 21.4438 34.3934 22.814 31.9977C23.5126 32.2256 24.559 32.3306 25.1407 32.3306H25.1437C28.2679 32.1986 31.1162 31.527 34.3664 30.1508C37.9374 28.6936 40.1171 27.1195 40.5069 26.8257C41.7722 25.9832 44.5456 23.4226 44.5456 21.3028C44.5456 20.5833 44.5456 18.6704 41.6552 18.6704C39.0977 18.6704 36.4052 19.285 33.4279 20.5443C31.0023 18.7063 28.034 17.6539 25.2606 17.6539C19.8457 17.6539 15.762 20.973 15.762 25.3715C15.762 29.2693 18.0377 30.6335 19.4979 31.4341C18.4185 33.4129 17.8308 35.062 17.546 36.8999C17.0333 39.5474 17.4201 41.8201 18.6434 43.2983C19.7197 44.6056 21.4378 45.2952 23.6085 45.2952C28.3758 45.2952 31.4431 42.7946 38.528 33.1281C39.0107 32.4565 39.4395 31.8538 39.8323 31.2961C41.3224 29.1883 42.3089 27.7971 44.1018 25.9022C44.3357 25.6564 44.5576 25.4195 44.7705 25.1916C43.4242 27.0266 42.075 29.1194 40.6988 31.503C33.1161 46.1647 30.8764 50.3743 28.004 54.8717C22.802 62.3884 17.9927 65.4557 11.4055 65.4557C5.33695 65.4557 1.70902 61.6238 1.70902 57.921C1.70902 51.1358 7.73559 47.5859 13.6932 47.5859C17.2012 47.5859 20.973 49.2679 20.973 52.9618C20.973 57.4412 16.3677 60.1157 11.9152 60.1157C9.27071 60.1157 7.68761 59.4501 6.8361 59.0903C6.47031 58.9374 6.24843 58.8444 6.06854 58.8444L5.96959 58.8684C5.85566 58.9254 5.59481 59.0843 5.59481 59.3182C5.59481 59.9718 8.97388 61.1861 12.1671 61.1861C16.8774 61.1861 21.9175 57.9329 21.9175 53.0877C21.9175 48.1885 17.2072 45.625 12.5508 45.625C6.46731 45.625 0 49.5767 0 56.9015C0 62.3194 4.9052 66.4031 11.4055 66.4031C20.8561 66.4031 28.6576 61.0422 33.9706 50.899L35.4368 48.0416C37.2687 44.4706 38.8548 41.3824 40.5728 37.9464C42.9025 34.1835 44.9174 31.0593 47.7927 27.9351C52.6949 22.5082 56.8416 19.8697 60.4695 19.8697C61.306 19.8697 62.6732 20.8501 62.7932 23.4796C62.9161 25.5124 62.1066 28.3998 61.351 30.3367L61.2281 30.3097C60.5564 30.1748 59.636 29.9859 59.0633 29.9859C56.02 30.1118 52.665 30.8794 50.0774 32.0397C45.517 34.2645 42.075 38.1203 42.075 41.0106C42.075 43.736 43.5921 45.2952 46.2366 45.2952C51.2677 45.2952 54.5209 43.2803 57.0484 41.3044C60.1337 38.7109 61.4709 37.0409 63.7346 32.9122C66.3551 34.3244 66.8588 35.6077 66.8588 37.4516Z" fill="#333333"/>
<path d="M169.526 45.3701C169.379 45.3701 169.31 45.4481 169.118 45.6819C168.852 46.0028 168.231 46.7523 166.567 48.4973C165.386 49.8466 163.2 51.8554 162.028 51.8554C161.77 51.8554 161.485 51.5676 161.485 51.3067C161.485 51.2048 161.656 50.773 161.797 50.4282C162.109 49.6487 162.498 48.6772 162.498 48.0026C162.498 46.9892 161.533 45.568 160.337 45.0403C161.761 44.6505 163.179 43.6881 163.991 42.5217C164.666 41.4004 165.011 40.9177 165.757 40.6628C165.796 41.5503 166.057 42.3748 167.242 42.3748C167.955 42.3748 168.726 41.8052 168.726 40.8847C168.726 39.8743 167.886 39.1427 166.729 39.1427C165.47 39.1427 164.78 39.6014 163.374 41.3974C162.117 43.2803 160.031 44.4826 159.359 44.4826C159.089 44.4826 158.942 44.4436 158.81 44.4077C158.708 44.3807 158.604 44.3537 158.469 44.3537C156.691 44.3537 156.601 45.1692 156.601 45.3311C156.601 45.8349 156.951 46.1856 157.452 46.1856C158.013 46.1856 158.436 45.9578 158.774 45.7749C158.999 45.655 159.194 45.55 159.359 45.55C159.647 45.55 160.031 45.8618 160.031 46.0957C160.031 46.3625 159.86 46.6624 159.665 47.0072C159.374 47.5199 159.014 48.1585 159.014 49.019C159.014 50.5871 159.869 52.7969 161.773 52.7969C163.602 52.7969 166.408 49.9935 167.52 48.7942C168.099 48.2155 170 46.1647 170 45.8408C170 45.7239 170 45.3701 169.526 45.3701Z" fill="#333333"/>
<path d="M73.0203 54.7188C69.1076 62.6043 65.8274 66.601 63.2669 66.601C62.5053 66.601 62.0856 66.0463 62.0856 65.0389C62.0856 62.7362 65.0629 59.9118 73.0203 54.7188ZM156.67 39.3945L156.691 39.6104L156.517 39.4785C156.094 40.0242 155.449 40.6418 154.706 41.3554C153.905 42.123 152.997 42.9955 152.079 44.0419L151.647 44.5126C150.922 45.3042 150.556 45.7029 150.385 45.9668C150.013 46.4015 149.321 47.1811 147.894 48.6113C145.501 51.0039 144.086 51.8554 143.597 51.8554C143.186 51.8554 143.051 51.6905 143.051 51.1808C143.051 49.8646 145.828 45.8528 147.852 42.9235C148.862 41.4633 149.732 40.2041 150.142 39.4665L149.953 39.3585L149.935 39.1427L146.883 39.3945L146.901 39.6104L146.712 39.5025C143.618 44.8964 137.421 51.8554 135.079 51.8554C134.953 51.8554 134.536 51.8074 134.536 51.1808C134.536 50.0714 134.947 49.4448 136.923 46.4255C137.96 44.8424 139.378 42.6777 141.369 39.4755L141.183 39.3585L141.165 39.1427L138.494 39.3945L138.512 39.6104L138.374 39.4455C136.86 40.7078 135.601 41.9671 134.587 42.9775L133.895 43.7061C132.246 45.4541 132.087 45.625 132.072 45.7869C132.042 45.8199 132.027 45.8378 131.994 45.8738C131.625 46.2906 130.854 47.1571 129.202 48.8721C127.595 50.5991 125.844 51.8554 125.041 51.8554C124.639 51.8554 124.495 51.3757 124.495 50.9499C124.603 49.9305 125.595 48.6353 126.645 47.265C128.027 45.4661 129.451 43.6041 129.451 41.7722C129.451 39.8323 128.447 39.1427 127.583 39.1427C125.221 39.1427 121.512 43.5771 119.239 46.3176C120.069 44.8604 120.936 43.1064 120.936 41.5173C120.936 39.5534 119.92 39.1427 119.065 39.1427C116.909 39.1427 113.416 43.4062 111.252 46.0867C112.133 44.5066 113.056 42.7526 113.056 41.1365C113.056 39.9072 112.241 39.1427 110.931 39.1427C109.62 39.1427 107.995 40.2131 105.807 42.5277C104.919 43.6191 104.176 44.4556 103.684 45.0103C103.48 45.2412 103.339 45.4031 103.231 45.526C103.168 45.589 103.102 45.6639 103.009 45.7749C102.688 46.1557 102.023 46.9442 100.35 48.6173C98.107 50.9919 96.5569 51.8554 96.0592 51.8554C95.6454 51.8554 95.5135 51.6905 95.5135 51.1808C95.5135 49.8675 98.2869 45.8558 100.311 42.9295C101.321 41.4693 102.194 40.2071 102.604 39.4665L102.416 39.3585L102.398 39.1427L99.3453 39.3945L99.3633 39.6104L99.1744 39.5085C98.4518 40.8307 97.4774 42.3179 96.2871 43.9069L95.6514 44.5456C95.0068 45.1842 94.4341 45.496 93.8974 45.496C93.7025 45.496 93.6875 45.496 93.5856 45.1093C93.3068 44.5576 92.9949 44.0988 91.9905 44.0988C91.5887 44.0988 91.184 44.1078 90.8242 44.1738L93.7895 39.1067L90.3235 39.3945L90.3385 39.6104L90.1675 39.4785C89.7448 40.0242 89.1032 40.6388 88.3596 41.3524C87.556 42.123 86.6446 42.9955 85.7301 44.0419L85.2833 44.5276C84.132 45.7809 83.8951 46.0387 83.8951 46.3506V46.3536C83.8292 46.4315 83.7662 46.5035 83.6852 46.5964C82.345 48.2455 79.6525 51.1778 76.4054 52.8119L84.9026 39.1067L81.4245 39.3945L81.4425 39.6104L81.2476 39.5145C79.7185 42.5697 72.1418 51.7265 69.3684 51.7265C69.0476 51.7265 68.9487 51.6515 68.9487 51.1808C68.9487 50.4972 69.7882 49.3069 70.6757 48.0476C72.0099 46.1527 73.527 44.0029 73.527 42.027C73.527 40.6358 72.7805 39.1427 71.1464 39.1427C69.7522 39.1427 67.9023 40.4499 65.6445 43.0315L64.853 43.9579C63.3029 45.7779 63.3029 45.7779 63.3029 45.9668C63.3029 46.2816 63.4198 46.4405 63.6477 46.4405C63.9535 46.4405 64.0854 46.2846 64.5772 45.7119C64.9699 45.2502 65.6326 44.4796 66.8559 43.1964C68.8317 41.0766 70.076 40.2131 71.1464 40.2131C71.5092 40.2131 71.6921 40.354 71.6921 40.6298C71.6921 41.4454 70.8136 42.6567 69.8871 43.9399C68.5859 45.7359 67.1137 47.7747 67.1137 49.7806C67.1137 51.1688 67.9742 52.671 69.3684 52.671C71.4252 52.671 75.347 48.7432 77.2899 46.4555L73.7789 53.0607C66.0793 57.6841 60.6314 61.2461 60.6314 64.91C60.6314 66.562 61.6388 67.6714 63.141 67.6714C66.2622 67.6714 70.9275 62.6613 75.6228 54.269C78.2883 52.9318 80.633 51.4147 83.3884 48.3984C83.6073 48.1465 83.8622 47.8497 84.123 47.5559C85.4243 46.0687 85.4722 45.9818 85.4722 45.8408C85.4722 45.7959 85.4602 45.7509 85.4422 45.7059C87.2502 43.7001 88.4165 42.4918 89.325 41.7032L82.0452 52.8119L85.7631 52.665L90.1106 45.2502C90.1975 45.2142 90.2875 45.1812 90.3654 45.1422C90.5993 45.0283 90.7312 44.9743 90.8781 45.0193C90.9561 45.0583 91.0071 45.3131 91.0461 45.499C91.076 45.64 91.106 45.7809 91.148 45.9098L91.175 45.9638C91.4778 46.4135 92.1794 46.6954 93.0099 46.6954C93.5106 46.6954 94.1523 46.4525 94.671 46.1647C94.3951 46.6594 94.1163 47.1691 93.9424 47.6968C93.9094 47.8227 93.8704 47.9576 93.8285 48.0986C93.6995 48.5303 93.5556 49.022 93.5556 49.5287C93.5556 51.0369 94.1433 52.7969 95.8043 52.7969C97.0786 52.7969 98.5328 51.8134 101.177 49.166C101.489 48.8152 101.87 48.3954 102.251 47.9786C103.045 47.0971 103.486 46.6084 103.729 46.3206C103.927 46.1677 104.206 45.8438 104.745 45.2172C105.162 44.7315 105.729 44.0719 106.514 43.1964C108.367 41.1875 109.812 40.2131 110.931 40.2131C111.225 40.2131 111.347 40.27 111.347 40.6298C111.347 41.1455 109.653 43.799 107.093 47.8167C106.223 49.1749 105.237 50.7221 104.14 52.4641L104.319 52.578L104.337 52.7969L107.39 52.542L107.372 52.3261L107.552 52.4491C109.303 49.9005 116.822 40.2101 118.747 40.2101C118.768 40.2101 118.792 40.2101 118.81 40.2131C119.074 40.2131 119.23 40.369 119.23 40.6298C119.23 41.7932 115.932 46.9202 113.962 49.9845C113.233 51.1148 112.658 52.0083 112.394 52.4701L112.583 52.578L112.601 52.7969L115.653 52.542L115.635 52.3261L115.815 52.4461C117.254 50.2873 124.849 40.2131 127.328 40.2131C127.664 40.2131 127.742 40.342 127.745 40.375C127.745 41.0136 126.933 41.985 125.991 43.1094C124.51 44.8844 122.663 47.0941 122.663 49.5287C122.663 51.6066 123.482 52.7969 124.912 52.7969C126.429 52.7969 128.03 51.4207 130.279 49.046L130.387 48.9381C132.554 46.7643 133.1 46.1557 133.133 45.8708C133.223 45.7659 133.325 45.643 133.463 45.4781C134.638 44.1978 135.784 42.9715 136.842 42.03C136.59 42.3628 136.326 42.6986 136.056 43.0464C134.407 45.1392 132.704 47.304 132.704 50.0355C132.704 51.7655 133.595 52.7969 135.079 52.7969C137.127 52.7969 139.687 50.0175 141.267 48.2695C141.156 48.6592 141.09 49.088 141.09 49.5287C141.09 51.0369 141.681 52.7969 143.342 52.7969C144.613 52.7969 146.071 51.8134 148.718 49.166C149.021 48.8241 149.393 48.4164 149.762 48.0056C151.018 46.6204 151.402 46.1827 151.519 45.9998C151.6 45.9098 151.671 45.8289 151.764 45.7329C153.407 43.9099 154.526 42.7436 155.398 41.9521L148.625 52.4611L148.808 52.578L148.817 52.7969L152.115 52.665L160.013 39.1067" fill="#333333"/>
<defs>
<linearGradient id="paint0_linear_8_718" x1="41.4484" y1="62.94" x2="166.561" y2="64.4751" gradientUnits="userSpaceOnUse">
<stop stop-color="#FEAA2D"/>
<stop offset="0.594674" stop-color="#FFD600"/>
<stop offset="1" stop-color="#FEAA2D"/>
</linearGradient>
<linearGradient id="paint1_linear_8_718" x1="114.367" y1="65.2428" x2="67.1617" y2="6.90805" gradientUnits="userSpaceOnUse">
<stop stop-color="#FEAA2D"/>
<stop offset="1" stop-color="#FFD600"/>
</linearGradient>
</defs>
</svg>
