<?xml version="1.0" encoding="UTF-8"?>
<svg version="1.1" xmlns="http://www.w3.org/2000/svg" width="22" height="22">
<path d="M0 0 C3.16872216 0.68885264 4.96142228 2.13674555 7.15625 4.46875 C8.80074869 7.75774737 8.11512015 11.31909736 7.99609375 14.9375 C7.88710981 17.64030657 7.88710981 17.64030657 10.15625 19.46875 C10.15625 20.45875 10.15625 21.44875 10.15625 22.46875 C6.15625 21.46875 6.15625 21.46875 4.40625 20.90625 C1.8929259 20.32517885 1.8929259 20.32517885 -1.78125 20.65625 C-5.10339637 20.71203231 -5.80595084 20.49287712 -8.78125 18.59375 C-11.59472261 15.69502065 -11.80596778 14.84657221 -12.21875 10.71875 C-12.155931 7.58922143 -11.69807761 5.55489294 -9.90625 2.96875 C-6.30587166 0.02966564 -4.51800289 -0.30120019 0 0 Z M-7.21875 5.09375 C-9.33081506 8.18061432 -9.45570145 9.7970413 -8.84375 13.46875 C-7.34375 15.96875 -7.34375 15.96875 -4.84375 17.46875 C-1.1720413 18.08070145 0.44438568 17.95581506 3.53125 15.84375 C5.64331506 12.75688568 5.76820145 11.1404587 5.15625 7.46875 C3.65625 4.96875 3.65625 4.96875 1.15625 3.46875 C-2.5154587 2.85679855 -4.13188568 2.98168494 -7.21875 5.09375 Z " fill="#323232" transform="translate(11.84375,-0.46875)"/>
</svg>
