<svg width="40" height="40" viewBox="0 0 40 40" fill="none" xmlns="http://www.w3.org/2000/svg">
<path fill-rule="evenodd" clip-rule="evenodd" d="M20 40C31.0457 40 40 31.0457 40 20C40 8.9543 31.0457 0 20 0C8.9543 0 0 8.9543 0 20C0 31.0457 8.9543 40 20 40ZM24.5837 14.0629H22.9607C21.6881 14.0629 21.4422 14.6881 21.4415 15.6014V17.7785H24.3133L23.92 20.9385H21.4422V28.8889H18.2763V20.9377H15.6941V17.7777H18.2763V15.2881C18.2763 12.5829 19.8792 11.1111 22.2192 11.1111C23.3407 11.1111 24.3037 11.1977 24.5837 11.2363V14.0629Z" fill="white"/>
</svg>
