<svg width="41" height="40" viewBox="0 0 41 40" fill="none" xmlns="http://www.w3.org/2000/svg">
<path fill-rule="evenodd" clip-rule="evenodd" d="M20.4 40C31.6666 40 40.8 31.0457 40.8 20C40.8 8.9543 31.6666 0 20.4 0C9.13339 0 0 8.9543 0 20C0 31.0457 9.13339 40 20.4 40ZM15.658 19.997C15.658 17.4785 17.8008 15.4355 20.4476 15.4355C23.092 15.4355 25.2371 17.4763 25.2371 19.997C25.2371 22.5155 23.0943 24.5585 20.4476 24.5585C17.8031 24.5585 15.658 22.5178 15.658 19.997ZM17.3388 19.997C17.3388 21.6326 18.7294 22.9578 20.4476 22.9578C22.1657 22.9578 23.5571 21.6326 23.5563 19.997C23.5563 18.3615 22.1649 17.0363 20.4476 17.0363C18.7302 17.0363 17.3388 18.3615 17.3388 19.997ZM24.2927 11.1677C22.5754 11.0914 18.3217 11.0951 16.6028 11.1677C15.0924 11.2351 13.76 11.5825 12.6859 12.6054C11.0796 14.1353 11.0944 16.1409 11.1153 18.9666V18.9667C11.1177 19.2987 11.1203 19.6421 11.1203 19.9973C11.1203 20.3297 11.1184 20.651 11.1166 20.9617V20.9619C11.0996 23.8826 11.088 25.8673 12.6859 27.3891C14.2952 28.9211 16.4243 28.9061 19.3578 28.8853H19.3579C19.7094 28.8828 20.0723 28.8803 20.4474 28.8803H20.498C24.0555 28.8803 25.2911 28.8803 26.5568 28.4136C28.2858 27.7743 29.5909 26.3025 29.7185 23.6588C29.7994 22.0225 29.7947 17.9721 29.7185 16.3351C29.5645 13.2143 27.8059 11.3217 24.2927 11.1677ZM27.011 26.258C25.9273 27.2902 24.457 27.287 21.2812 27.28L21.2798 27.28C21.0076 27.2794 20.7229 27.2788 20.4248 27.2788L19.8906 27.279C16.39 27.2814 14.9229 27.2824 13.8386 26.2469C12.7105 25.1777 12.7292 23.5509 12.7563 21.1899C12.7607 20.8079 12.7653 20.4066 12.7653 19.9854C12.7653 19.6283 12.7619 19.2798 12.7586 18.9412V18.9411C12.7245 15.3992 12.7007 12.9271 16.637 12.7351L16.6817 12.7336C17.6373 12.7014 17.9575 12.6906 20.4139 12.6906L20.4489 12.7128C20.8041 12.7128 21.1527 12.7098 21.4934 12.7068C25.1285 12.6752 27.8623 12.6514 28.0408 16.4062C28.0851 17.3432 28.0953 17.6247 28.0953 19.9965C28.0952 20.2093 28.0954 20.4147 28.0956 20.6132V20.6147C28.0988 23.8301 28.1002 25.2158 27.011 26.258ZM26.5461 15.2556C26.5461 15.8443 26.045 16.3215 25.4269 16.3215C24.8087 16.3215 24.3076 15.8443 24.3076 15.2556C24.3076 14.6669 24.8087 14.1897 25.4269 14.1897C26.045 14.1897 26.5461 14.6669 26.5461 15.2556Z" fill="white"/>
</svg>
