<svg width="40" height="40" viewBox="0 0 40 40" fill="none" xmlns="http://www.w3.org/2000/svg">
<path fill-rule="evenodd" clip-rule="evenodd" d="M20 40C31.0457 40 40 31.0457 40 20C40 8.9543 31.0457 0 20 0C8.9543 0 0 8.9543 0 20C0 31.0457 8.9543 40 20 40ZM26.8842 22.2124C26.7259 22.0667 26.5675 21.9209 26.4115 21.7728C25.8797 21.2688 25.8458 20.9762 26.2738 20.3959C26.5218 20.0576 26.7801 19.7265 27.0384 19.3955C27.2653 19.1047 27.4922 18.8139 27.7119 18.5185C27.7285 18.4961 27.7451 18.4738 27.7617 18.4514C28.185 17.882 28.6096 17.311 28.8319 16.6309C28.9785 16.1803 28.8484 15.9819 28.3737 15.9033C28.2928 15.8898 28.2083 15.8886 28.1248 15.8886L25.3077 15.8862C24.9605 15.8796 24.7684 16.027 24.646 16.3265C24.4808 16.7301 24.3103 17.1341 24.112 17.5231C23.6651 18.4077 23.1649 19.262 22.4641 19.9849C22.4541 19.9952 22.4441 20.0056 22.4339 20.0162C22.2865 20.1691 22.1216 20.3403 21.8796 20.2633C21.5563 20.1479 21.4616 19.6302 21.4666 19.4558L21.4641 16.2959C21.401 15.8452 21.2987 15.6441 20.8379 15.5557H17.9109C17.5206 15.5557 17.3248 15.7031 17.1166 15.9399C16.9968 16.0773 16.9599 16.1668 17.2074 16.2124C17.6925 16.3018 17.9664 16.6076 18.0384 17.0801C18.1559 17.8372 18.147 18.5956 18.0801 19.3553C18.0599 19.5762 18.0206 19.7982 17.931 20.0044C17.7897 20.3296 17.561 20.3958 17.2607 20.196C16.9892 20.0154 16.7985 19.759 16.6115 19.5025C15.9094 18.5391 15.3501 17.4998 14.893 16.4074C14.7604 16.0921 14.5331 15.9007 14.1897 15.8958C13.3438 15.8821 12.499 15.881 11.6541 15.897C11.1453 15.9055 10.9937 16.1461 11.2009 16.5942C12.1214 18.5835 13.1455 20.5186 14.4828 22.2796C15.1696 23.184 15.9587 23.9828 16.9764 24.5487C18.1306 25.1906 19.3731 25.3831 20.6823 25.3231C21.2949 25.2959 21.4793 25.1401 21.507 24.5474C21.5272 24.1411 21.5739 23.7375 21.7797 23.373C21.9817 23.0146 22.2886 22.9463 22.6422 23.1694C22.8189 23.2809 22.9669 23.4221 23.1082 23.572C23.2197 23.6907 23.3299 23.8105 23.44 23.9303C23.6706 24.1809 23.901 24.4316 24.1437 24.6718C24.5917 25.1156 25.1246 25.377 25.7926 25.3231L28.3825 25.3242C28.7992 25.2973 29.0163 24.8003 28.7766 24.3487C28.6073 24.0311 28.3861 23.7486 28.1525 23.4748C27.7636 23.0219 27.3241 22.6173 26.8842 22.2124Z" fill="white"/>
</svg>
