<svg width="40" height="40" viewBox="0 0 40 40" fill="none" xmlns="http://www.w3.org/2000/svg">
<path fill-rule="evenodd" clip-rule="evenodd" d="M20 40C31.0457 40 40 31.0457 40 20C40 8.9543 31.0457 0 20 0C8.9543 0 0 8.9543 0 20C0 31.0457 8.9543 40 20 40ZM26.1539 14.79C26.8805 14.9802 27.4528 15.5407 27.6471 16.2524C28 17.5424 28 20.2338 28 20.2338C28 20.2338 28 22.9252 27.6471 24.2152C27.4528 24.9269 26.8805 25.464 26.1539 25.6542C24.8368 25.9999 19.5555 25.9999 19.5555 25.9999C19.5555 25.9999 14.2743 25.9999 12.9571 25.6542C12.2305 25.464 11.6582 24.9269 11.464 24.2152C11.1111 22.9252 11.1111 20.2338 11.1111 20.2338C11.1111 20.2338 11.1111 17.5424 11.464 16.2524C11.6582 15.5407 12.2305 14.9802 12.9571 14.79C14.2743 14.4443 19.5555 14.4443 19.5555 14.4443C19.5555 14.4443 24.8368 14.4443 26.1539 14.79ZM22.2424 20.2339L17.8282 17.7902V22.6774L22.2424 20.2339Z" fill="white"/>
</svg>
